<svg xmlns="http://www.w3.org/2000/svg" xmlns:xlink="http://www.w3.org/1999/xlink" xmlns:lucid="lucid" width="1351.2" height="600"><g transform="translate(140 -40)" lucid:page-tab-id="0_0"><path d="M834.44 181.2l-25.56 14.52-11.88-14.5h-31.32v-58.98c0-33.22-25.56-56.16-61.92-56.16-5.76 0-10.44.94-15.12.94 7.2 3.74 12.96 9.83 18.72 15.9 22.32.95 43.2 13.12 43.2 39.32v60.38h-39.6v-54.3c0-33.7-25.56-56.15-61.92-56.15-36 0-61.56 22.46-61.56 56.16v54.3h-73.44L500 505.06l287.64 21.53h4.68l11.88 1.4 51.12-42.12-20.88-304.67zm-232.92-52.87c0-27.6 23.04-39.3 45.36-39.3 21.96 0 45.36 11.7 45.36 39.3v54.3h-34.92v-58.98c0-7.02 2.16-14.5 4.68-19.2-7.2-2.33-12.96-2.33-15.12-2.33h-1.08c-2.52 7.02-4.68 14.5-4.68 21.53v58.97h-39.6v-54.3z" stroke="#000" stroke-opacity="0" fill="#1071e5"/><use xlink:href="#a" transform="matrix(1,0,0,1,470,537.0000000000001) translate(6.223958333333314 19.791666666666668)"/><use xlink:href="#b" transform="matrix(1,0,0,1,470,537.0000000000001) translate(11.505208333333314 19.791666666666668)"/><use xlink:href="#c" transform="matrix(1,0,0,1,470,537.0000000000001) translate(35.71354166666665 19.791666666666668)"/><use xlink:href="#d" transform="matrix(1,0,0,1,470,537.0000000000001) translate(116.28645833333334 19.791666666666668)"/><use xlink:href="#e" transform="matrix(1,0,0,1,470,537.0000000000001) translate(186.921875 19.791666666666668)"/><use xlink:href="#f" transform="matrix(1,0,0,1,470,537.0000000000001) translate(227.609375 19.791666666666668)"/><use xlink:href="#g" transform="matrix(1,0,0,1,470,537.0000000000001) translate(273.0885416666667 19.791666666666668)"/><use xlink:href="#h" transform="matrix(1,0,0,1,470,537.0000000000001) translate(327.81770833333337 19.791666666666668)"/><use xlink:href="#i" transform="matrix(1,0,0,1,470,537.0000000000001) translate(371.59895833333337 19.791666666666668)"/><use xlink:href="#j" transform="matrix(1,0,0,1,470,537.0000000000001) translate(407.97395833333337 19.791666666666668)"/><use xlink:href="#k" transform="matrix(1,0,0,1,470,537.0000000000001) translate(19.64062499999997 44.79166666666667)"/><use xlink:href="#l" transform="matrix(1,0,0,1,470,537.0000000000001) translate(55.82812499999997 44.79166666666667)"/><use xlink:href="#m" transform="matrix(1,0,0,1,470,537.0000000000001) translate(92.13020833333331 44.79166666666667)"/><use xlink:href="#n" transform="matrix(1,0,0,1,470,537.0000000000001) translate(128.109375 44.79166666666667)"/><use xlink:href="#o" transform="matrix(1,0,0,1,470,537.0000000000001) translate(168.328125 44.79166666666667)"/><use xlink:href="#p" transform="matrix(1,0,0,1,470,537.0000000000001) translate(235.94270833333334 44.79166666666667)"/><use xlink:href="#q" transform="matrix(1,0,0,1,470,537.0000000000001) translate(302.390625 44.79166666666667)"/><use xlink:href="#r" transform="matrix(1,0,0,1,470,537.0000000000001) translate(371.56770833333337 44.79166666666667)"/><use xlink:href="#s" transform="matrix(1,0,0,1,470,537.0000000000001) translate(154.46875 69.79166666666667)"/><path d="M-120 206a6 6 0 0 1 6-6h448a6 6 0 0 1 6 6v264.67a6 6 0 0 1-6 6h-448a6 6 0 0 1-6-6z" stroke="#000" stroke-opacity="0" fill="#fff" fill-opacity="0"/><use xlink:href="#t" transform="matrix(1,0,0,1,-115,205) translate(0 103.22916666666667)"/><use xlink:href="#u" transform="matrix(1,0,0,1,-115,205) translate(50.520833333333336 103.22916666666667)"/><use xlink:href="#v" transform="matrix(1,0,0,1,-115,205) translate(82.59375 103.22916666666667)"/><use xlink:href="#w" transform="matrix(1,0,0,1,-115,205) translate(165.28125 103.22916666666667)"/><use xlink:href="#x" transform="matrix(1,0,0,1,-115,205) translate(199.35416666666669 103.22916666666667)"/><use xlink:href="#y" transform="matrix(1,0,0,1,-115,205) translate(257.30208333333337 103.22916666666667)"/><use xlink:href="#z" transform="matrix(1,0,0,1,-115,205) translate(336.55208333333337 103.22916666666667)"/><use xlink:href="#A" transform="matrix(1,0,0,1,-115,205) translate(0 128.22916666666666)"/><use xlink:href="#B" transform="matrix(1,0,0,1,-115,205) translate(70.63541666666667 128.22916666666666)"/><use xlink:href="#u" transform="matrix(1,0,0,1,-115,205) translate(138.25 128.22916666666666)"/><use xlink:href="#C" transform="matrix(1,0,0,1,-115,205) translate(170.32291666666669 128.22916666666666)"/><use xlink:href="#D" transform="matrix(1,0,0,1,-115,205) translate(242.57291666666669 128.22916666666666)"/><use xlink:href="#E" transform="matrix(1,0,0,1,-115,205) translate(278.55208333333337 128.22916666666666)"/><use xlink:href="#F" transform="matrix(1,0,0,1,-115,205) translate(289.6354166666667 128.22916666666666)"/><use xlink:href="#w" transform="matrix(1,0,0,1,-115,205) translate(339.61458333333337 128.22916666666666)"/><use xlink:href="#G" transform="matrix(1,0,0,1,-115,205) translate(373.68750000000006 128.22916666666666)"/><use xlink:href="#H" transform="matrix(1,0,0,1,-115,205) translate(0 153.22916666666666)"/><use xlink:href="#I" transform="matrix(1,0,0,1,-115,205) translate(49.39583333333334 153.22916666666666)"/><use xlink:href="#J" transform="matrix(1,0,0,1,-115,205) translate(113.63541666666669 153.22916666666666)"/><use xlink:href="#K" transform="matrix(1,0,0,1,-115,205) translate(149.18750000000003 153.22916666666666)"/><use xlink:href="#L" transform="matrix(1,0,0,1,-115,205) translate(218.36458333333337 153.22916666666666)"/><use xlink:href="#M" transform="matrix(1,0,0,1,-115,205) translate(322.4166666666667 153.22916666666666)"/><use xlink:href="#N" transform="matrix(1,0,0,1,-115,205) translate(390.90625 153.22916666666666)"/><use xlink:href="#O" transform="matrix(1,0,0,1,-115,205) translate(0 178.22916666666666)"/><use xlink:href="#P" transform="matrix(1,0,0,1,-115,205) translate(40.21875000000001 178.22916666666666)"/><path d="M1060 60h131.2v560H1060z" fill-opacity="0"/><use xlink:href="#Q" transform="matrix(1,0,0,1,1065,65) translate(0 19.791666666666668)"/><use xlink:href="#R" transform="matrix(1,0,0,1,1065,65) translate(74.34375000000001 19.791666666666668)"/><use xlink:href="#S" transform="matrix(1,0,0,1,1065,65) translate(0 44.79166666666667)"/><use xlink:href="#T" transform="matrix(1,0,0,1,1065,65) translate(39.239583333333336 44.79166666666667)"/><use xlink:href="#U" transform="matrix(1,0,0,1,1065,65) translate(0 69.79166666666667)"/><use xlink:href="#V" transform="matrix(1,0,0,1,1065,65) translate(55.6875 69.79166666666667)"/><use xlink:href="#W" transform="matrix(1,0,0,1,1065,65) translate(0 94.79166666666667)"/><use xlink:href="#V" transform="matrix(1,0,0,1,1065,65) translate(37.239583333333336 94.79166666666667)"/><use xlink:href="#X" transform="matrix(1,0,0,1,1065,65) translate(0 119.79166666666667)"/><use xlink:href="#V" transform="matrix(1,0,0,1,1065,65) translate(87.85416666666667 119.79166666666667)"/><use xlink:href="#Y" transform="matrix(1,0,0,1,1065,65) translate(0 144.79166666666666)"/><use xlink:href="#V" transform="matrix(1,0,0,1,1065,65) translate(63.114583333333336 144.79166666666666)"/><use xlink:href="#Z" transform="matrix(1,0,0,1,1065,65) translate(0 169.79166666666666)"/><use xlink:href="#V" transform="matrix(1,0,0,1,1065,65) translate(59.895833333333336 169.79166666666666)"/><use xlink:href="#aa" transform="matrix(1,0,0,1,1065,65) translate(0 194.79166666666666)"/><use xlink:href="#V" transform="matrix(1,0,0,1,1065,65) translate(75.80208333333334 194.79166666666666)"/><use xlink:href="#ab" transform="matrix(1,0,0,1,1065,65) translate(0 219.79166666666666)"/><use xlink:href="#V" transform="matrix(1,0,0,1,1065,65) translate(72.78125000000001 219.79166666666666)"/><use xlink:href="#W" transform="matrix(1,0,0,1,1065,65) translate(0 244.79166666666666)"/><use xlink:href="#V" transform="matrix(1,0,0,1,1065,65) translate(37.239583333333336 244.79166666666666)"/><use xlink:href="#ac" transform="matrix(1,0,0,1,1065,65) translate(0 269.7916666666667)"/><use xlink:href="#V" transform="matrix(1,0,0,1,1065,65) translate(41.145833333333336 269.7916666666667)"/><use xlink:href="#ad" transform="matrix(1,0,0,1,1065,65) translate(0 294.7916666666667)"/><use xlink:href="#V" transform="matrix(1,0,0,1,1065,65) translate(16.25 294.7916666666667)"/><use xlink:href="#ae" transform="matrix(1,0,0,1,1065,65) translate(0 319.7916666666667)"/><use xlink:href="#V" transform="matrix(1,0,0,1,1065,65) translate(55.145833333333336 319.7916666666667)"/><use xlink:href="#af" transform="matrix(1,0,0,1,1065,65) translate(0 344.7916666666667)"/><use xlink:href="#V" transform="matrix(1,0,0,1,1065,65) translate(50.41666666666667 344.7916666666667)"/><use xlink:href="#ag" transform="matrix(1,0,0,1,1065,65) translate(0 369.7916666666667)"/><use xlink:href="#V" transform="matrix(1,0,0,1,1065,65) translate(48.94791666666667 369.7916666666667)"/><use xlink:href="#ah" transform="matrix(1,0,0,1,1065,65) translate(0 394.7916666666667)"/><use xlink:href="#V" transform="matrix(1,0,0,1,1065,65) translate(69.40625000000001 394.7916666666667)"/><use xlink:href="#ai" transform="matrix(1,0,0,1,1065,65) translate(0 419.7916666666667)"/><use xlink:href="#V" transform="matrix(1,0,0,1,1065,65) translate(40.71875 419.7916666666667)"/><use xlink:href="#aj" transform="matrix(1,0,0,1,1065,65) translate(0 444.7916666666667)"/><use xlink:href="#V" transform="matrix(1,0,0,1,1065,65) translate(109.21875 444.7916666666667)"/><use xlink:href="#ak" transform="matrix(1,0,0,1,1065,65) translate(0 469.7916666666667)"/><use xlink:href="#V" transform="matrix(1,0,0,1,1065,65) translate(73.65625000000001 469.7916666666667)"/><use xlink:href="#al" transform="matrix(1,0,0,1,1065,65) translate(0 494.7916666666667)"/><use xlink:href="#V" transform="matrix(1,0,0,1,1065,65) translate(40.447916666666664 494.7916666666667)"/><use xlink:href="#am" transform="matrix(1,0,0,1,1065,65) translate(0 519.7916666666666)"/><use xlink:href="#V" transform="matrix(1,0,0,1,1065,65) translate(45.38541666666667 519.7916666666666)"/><use xlink:href="#an" transform="matrix(1,0,0,1,1065,65) translate(0 544.7916666666666)"/><use xlink:href="#ao" transform="matrix(1,0,0,1,1065,65) translate(56.54166666666667 544.7916666666666)"/><path d="M540 220h55.24v35H540z" fill="#fff" fill-opacity="0"/><g><use xlink:href="#ap" transform="matrix(1,0,0,1,545,225) translate(0 19.791666666666668)"/></g><path d="M593.2 322H630v35h-36.8z" fill="#fff" fill-opacity="0"/><g><use xlink:href="#aq" transform="matrix(1,0,0,1,598.2083333333333,327) translate(0 19.791666666666668)"/></g><path d="M620 375h87.4v35H620z" fill="#fff" fill-opacity="0"/><g><use xlink:href="#ar" transform="matrix(1,0,0,1,625,380) translate(0 19.791666666666668)"/></g><path d="M659.9 231h38.8v35h-38.8z" fill="#fff" fill-opacity="0"/><g><use xlink:href="#as" transform="matrix(1,0,0,1,664.8958333333334,236) translate(0 19.791666666666668)"/></g><path d="M630 337h62.67v35H630z" fill="#fff" fill-opacity="0"/><g><use xlink:href="#at" transform="matrix(1,0,0,1,635,342) translate(0 19.791666666666668)"/></g><path d="M529 402h73.9v35H529z" fill="#fff" fill-opacity="0"/><g><use xlink:href="#au" transform="matrix(1,0,0,1,534,407) translate(0 19.791666666666668)"/></g><path d="M640 420h59.45v35H640z" fill="#fff" fill-opacity="0"/><g><use xlink:href="#av" transform="matrix(1,0,0,1,645,425) translate(0 19.791666666666668)"/></g><path d="M681 266h75.35v35H681z" fill="#fff" fill-opacity="0"/><g><use xlink:href="#aw" transform="matrix(1,0,0,1,686,271) translate(0 19.791666666666668)"/></g><path d="M674 194h72.33v35H674z" fill="#fff" fill-opacity="0"/><g><use xlink:href="#ax" transform="matrix(1,0,0,1,679,199) translate(0 19.791666666666668)"/></g><path d="M743 322h73.9v35H743z" fill="#fff" fill-opacity="0"/><g><use xlink:href="#au" transform="matrix(1,0,0,1,748,327) translate(0 19.791666666666668)"/></g><path d="M743 351h36.8v35H743z" fill="#fff" fill-opacity="0"/><g><use xlink:href="#aq" transform="matrix(1,0,0,1,748,356) translate(0 19.791666666666668)"/></g><path d="M548 285h40.7v35H548z" fill="#fff" fill-opacity="0"/><g><use xlink:href="#ay" transform="matrix(1,0,0,1,553,290) translate(0 19.791666666666668)"/></g><path d="M567 343h15.8v35H567z" fill="#fff" fill-opacity="0"/><g><use xlink:href="#az" transform="matrix(1,0,0,1,572,348) translate(0 19.791666666666668)"/></g><path d="M718 436h54.7v35H718z" fill="#fff" fill-opacity="0"/><g><use xlink:href="#aA" transform="matrix(1,0,0,1,723,441) translate(0 19.791666666666668)"/></g><path d="M773 394h38.8v35H773z" fill="#fff" fill-opacity="0"/><g><use xlink:href="#as" transform="matrix(1,0,0,1,778,399) translate(0 19.791666666666668)"/></g><path d="M759 287h49.97v35H759z" fill="#fff" fill-opacity="0"/><g><use xlink:href="#aB" transform="matrix(1,0,0,1,764,292) translate(0 19.791666666666668)"/></g><path d="M596 237h48.5v35H596z" fill="#fff" fill-opacity="0"/><g><use xlink:href="#aC" transform="matrix(1,0,0,1,601,242) translate(0 19.791666666666668)"/></g><path d="M737 222h68.96v35H737z" fill="#fff" fill-opacity="0"/><g><use xlink:href="#aD" transform="matrix(1,0,0,1,742,227) translate(0 19.791666666666668)"/></g><path d="M537 457h40.27v35H537z" fill="#fff" fill-opacity="0"/><g><use xlink:href="#aE" transform="matrix(1,0,0,1,542,462) translate(0 19.791666666666668)"/></g><path d="M586 465h73.9v35H586z" fill="#fff" fill-opacity="0"/><g><use xlink:href="#au" transform="matrix(1,0,0,1,591,470) translate(0 19.791666666666668)"/></g><path d="M661 469h108.77v35H661z" fill="#fff" fill-opacity="0"/><g><use xlink:href="#aF" transform="matrix(1,0,0,1,666,474) translate(0 19.791666666666668)"/></g><path d="M765 430h73.2v35H765z" fill="#fff" fill-opacity="0"/><g><use xlink:href="#aG" transform="matrix(1,0,0,1,770,435) translate(0 19.791666666666668)"/></g><path d="M602 287h40v35h-40z" fill="#fff" fill-opacity="0"/><g><use xlink:href="#aH" transform="matrix(1,0,0,1,607,292) translate(0 19.791666666666668)"/></g><path d="M581 192h44.94v35H581z" fill="#fff" fill-opacity="0"/><g><use xlink:href="#aI" transform="matrix(1,0,0,1,586,197) translate(0 19.791666666666668)"/></g><path d="M680 301h56.1v35H680z" fill="#fff" fill-opacity="0"/><g><use xlink:href="#aJ" transform="matrix(1,0,0,1,685,306) translate(0 19.791666666666668)"/></g><g><path d="M354.94 312.3a6 6 0 0 1 5.9-6.1l41.47-.7a6 6 0 0 0 5.9-6.1l-.13-8.3a2.3 2.3 0 0 1 4-1.6l29.02 31.2a6.67 6.67 0 0 1 .14 8.92l-27.97 32.14a2.3 2.3 0 0 1-4.04-1.47l-.14-8.3a6 6 0 0 0-6.1-5.9l-41.48.7a6 6 0 0 1-6.1-5.9z" stroke="#000" stroke-opacity="0" fill="#979ea8"/></g><g><path d="M900.44 312.3a6 6 0 0 1 5.9-6.1l41.47-.7a6 6 0 0 0 5.9-6.1l-.13-8.3a2.3 2.3 0 0 1 4-1.6l29.02 31.2a6.67 6.67 0 0 1 .14 8.92l-27.98 32.14a2.3 2.3 0 0 1-4.04-1.47l-.13-8.3a6 6 0 0 0-6.1-5.9l-41.5.7a6 6 0 0 1-6.1-5.9z" stroke="#000" stroke-opacity="0" fill="#979ea8"/></g><defs><path fill="#fff" d="M456 20C285 20 205-92 206-268v-671H9v-143h197v-262h185v262h202v143H391v671c-9 125 92 149 207 118V0c-49 13-96 20-142 20" id="aK"/><path fill="#fff" d="M584 20C278 26 81-227 91-551c10-320 175-545 491-551 308-5 503 247 494 573-9 322-175 543-492 549zm-2-970c-208 0-305 185-305 421 0 216 106 398 307 398 211 0 307-186 307-420 0-214-109-399-309-399" id="aL"/><g id="b"><use transform="matrix(0.010416666666666668,0,0,0.010416666666666668,0,0)" xlink:href="#aK"/><use transform="matrix(0.010416666666666668,0,0,0.010416666666666668,6.760416666666668,0)" xlink:href="#aL"/></g><path fill="#fff" d="M1098-255l208-827h185L1176 0h-150L763-820 507 0H357L43-1082h184l213 810 252-810h149" id="aM"/><path fill="#fff" d="M561-1102c238-4 403 126 403 351v498c0 99 13 178 38 237V0H808c-11-21-19-59-26-114C696-25 593 20 474 20c-199 0-368-130-365-320 4-251 214-359 490-356h180v-85c-1-135-86-212-229-212-115 0-232 67-233 171H131c20-205 206-316 430-320zM294-326c0 117 90 185 207 185 122 0 239-75 278-162v-222H634c-227 0-340 66-340 199" id="aN"/><path fill="#fff" d="M589-945c-131 0-219 81-264 174V0H140v-1082h175l6 136c83-104 191-156 324-156 229 0 346 129 346 387V0H806v-716c-2-153-65-229-217-229" id="aO"/><path fill="#fff" d="M341 0H156v-1082h185V0zm-91-1264c-68 0-108-42-109-105 0-62 41-107 109-107s110 44 110 107-42 105-110 105" id="aP"/><path fill="#fff" d="M521 20C240 20 96-239 96-550c0-303 147-552 427-552 132 0 235 47 309 140l9-120h169V-26c4 277-183 454-459 452-165-1-334-81-400-187l96-111c79 98 176 147 291 147 180 1 288-109 286-290v-93C750-23 649 20 521 20zm48-965c-209 0-287 178-287 416 0 217 86 392 285 392 117 0 202-53 257-159v-494c-57-103-142-155-255-155" id="aQ"/><g id="c"><use transform="matrix(0.010416666666666668,0,0,0.010416666666666668,0,0)" xlink:href="#aM"/><use transform="matrix(0.010416666666666668,0,0,0.010416666666666668,16.031250000000004,0)" xlink:href="#aN"/><use transform="matrix(0.010416666666666668,0,0,0.010416666666666668,27.63541666666667,0)" xlink:href="#aO"/><use transform="matrix(0.010416666666666668,0,0,0.010416666666666668,39.40625000000001,0)" xlink:href="#aK"/><use transform="matrix(0.010416666666666668,0,0,0.010416666666666668,46.37500000000001,0)" xlink:href="#aP"/><use transform="matrix(0.010416666666666668,0,0,0.010416666666666668,51.552083333333336,0)" xlink:href="#aO"/><use transform="matrix(0.010416666666666668,0,0,0.010416666666666668,63.322916666666686,0)" xlink:href="#aQ"/></g><path fill="#fff" d="M341 0H156v-1536h185V0" id="aR"/><path fill="#fff" d="M494-271l252-811h198L509 167C425 381 299 474 84 421V271c167 16 242-37 283-173l41-110L22-1082h202" id="aS"/><path fill="#fff" d="M538-131c121 0 232-49 232-156 0-50-20-88-56-117-73-60-334-92-420-143-92-55-162-110-162-238 0-190 192-317 400-317 223 0 414 129 413 338H759c0-108-110-186-227-186-119 0-215 53-215 159 0 45 18 78 53 101 76 52 331 90 416 139 98 57 169 115 169 251C955-92 760 20 538 20c-176 0-314-68-386-174-38-55-57-115-57-179h185c6 129 116 202 258 202" id="aT"/><g id="d"><use transform="matrix(0.010416666666666668,0,0,0.010416666666666668,0,0)" xlink:href="#aN"/><use transform="matrix(0.010416666666666668,0,0,0.010416666666666668,11.604166666666668,0)" xlink:href="#aR"/><use transform="matrix(0.010416666666666668,0,0,0.010416666666666668,16.78125,0)" xlink:href="#aM"/><use transform="matrix(0.010416666666666668,0,0,0.010416666666666668,32.8125,0)" xlink:href="#aN"/><use transform="matrix(0.010416666666666668,0,0,0.010416666666666668,44.26041666666667,0)" xlink:href="#aS"/><use transform="matrix(0.010416666666666668,0,0,0.010416666666666668,54.35416666666667,0)" xlink:href="#aT"/></g><path fill="#fff" d="M520 20C244 20 95-247 95-550c0-298 151-550 427-552 127 0 227 43 301 130v-564h185V0H838l-9-116C755-25 652 20 520 20zm48-965c-210 0-288 177-288 416 0 218 87 392 286 392 117 0 203-53 257-158v-497c-55-102-140-153-255-153" id="aU"/><g id="e"><use transform="matrix(0.010416666666666668,0,0,0.010416666666666668,0,0)" xlink:href="#aN"/><use transform="matrix(0.010416666666666668,0,0,0.010416666666666668,11.604166666666668,0)" xlink:href="#aO"/><use transform="matrix(0.010416666666666668,0,0,0.010416666666666668,23.374999999999996,0)" xlink:href="#aU"/></g><path fill="#fff" d="M589-945c-131 0-219 81-264 174V0H140v-1536h185v585c82-101 189-151 320-151 229 0 346 129 346 387V0H806v-716c-2-153-65-229-217-229" id="aV"/><path fill="#fff" d="M599-131c141 0 220-65 285-146l113 88C906-50 770 20 589 20 281 21 93-214 93-545c0-223 93-397 233-485 74-48 154-72 240-72 300 2 449 218 445 537v77H278c0 197 129 357 321 357zm227-509c-3-180-88-310-260-310-170 0-264 140-282 310h542" id="aW"/><path fill="#fff" d="M632-1102c291 0 422 251 422 573 0 297-141 548-419 549-131 0-235-42-310-125v521H140v-1498h169l9 120c75-93 180-140 314-140zm-53 971c207 0 290-180 290-419 0-218-92-395-292-395-112 0-196 50-252 149v517c55 99 140 148 254 148" id="aX"/><g id="f"><use transform="matrix(0.010416666666666668,0,0,0.010416666666666668,0,0)" xlink:href="#aV"/><use transform="matrix(0.010416666666666668,0,0,0.010416666666666668,11.750000000000002,0)" xlink:href="#aW"/><use transform="matrix(0.010416666666666668,0,0,0.010416666666666668,23.052083333333336,0)" xlink:href="#aR"/><use transform="matrix(0.010416666666666668,0,0,0.010416666666666668,28.22916666666667,0)" xlink:href="#aX"/></g><path fill="#fff" d="M631-137c179 0 314-70 314-231 0-71-25-127-75-166s-141-77-272-115c-165-47-285-106-360-175s-112-154-112-255c0-245 231-397 495-397 206 0 369 89 449 218 43 68 65 142 65 223H942c0-184-129-283-321-283-172 0-299 76-301 236 0 59 26 109 76 150s135 78 256 113c205 59 345 116 436 256 35 53 50 119 50 193-2 256-231 398-507 390C333 12 90-129 80-422h193c0 187 160 285 358 285" id="aY"/><path fill="#fff" d="M253-1536c2 169-14 319-21 479H103l1-479h149" id="aZ"/><g id="g"><use transform="matrix(0.010416666666666668,0,0,0.010416666666666668,0,0)" xlink:href="#aY"/><use transform="matrix(0.010416666666666668,0,0,0.010416666666666668,12.656250000000002,0)" xlink:href="#aV"/><use transform="matrix(0.010416666666666668,0,0,0.010416666666666668,24.406250000000004,0)" xlink:href="#aW"/><use transform="matrix(0.010416666666666668,0,0,0.010416666666666668,35.56250000000001,0)" xlink:href="#aZ"/><use transform="matrix(0.010416666666666668,0,0,0.010416666666666668,38.44791666666667,0)" xlink:href="#aT"/></g><path fill="#fff" d="M634-1102c292 0 422 254 422 573 0 298-143 547-420 549-137 0-242-48-317-145L310 0H140v-1536h185v573c75-93 178-139 309-139zm-44 965c207 0 281-175 281-413 0-224-79-395-283-395-122 0-210 57-263 170v468c57 113 145 170 265 170" id="ba"/><g id="h"><use transform="matrix(0.010416666666666668,0,0,0.010416666666666668,0,0)" xlink:href="#ba"/><use transform="matrix(0.010416666666666668,0,0,0.010416666666666668,11.968750000000002,0)" xlink:href="#aP"/><use transform="matrix(0.010416666666666668,0,0,0.010416666666666668,17.145833333333336,0)" xlink:href="#aR"/><use transform="matrix(0.010416666666666668,0,0,0.010416666666666668,22.322916666666668,0)" xlink:href="#aR"/><use transform="matrix(0.010416666666666668,0,0,0.010416666666666668,27.500000000000007,0)" xlink:href="#aT"/></g><g id="i"><use transform="matrix(0.010416666666666668,0,0,0.010416666666666668,0,0)" xlink:href="#aK"/><use transform="matrix(0.010416666666666668,0,0,0.010416666666666668,6.760416666666668,0)" xlink:href="#aL"/><use transform="matrix(0.010416666666666668,0,0,0.010416666666666668,18.927083333333336,0)" xlink:href="#aL"/></g><path fill="#fff" d="M375 0H183v-1456h192V0" id="bb"/><use transform="matrix(0.010416666666666668,0,0,0.010416666666666668,0,0)" xlink:href="#bb" id="j"/><g id="k"><use transform="matrix(0.010416666666666668,0,0,0.010416666666666668,0,0)" xlink:href="#aO"/><use transform="matrix(0.010416666666666668,0,0,0.010416666666666668,11.770833333333334,0)" xlink:href="#aL"/><use transform="matrix(0.010416666666666668,0,0,0.010416666666666668,23.937499999999996,0)" xlink:href="#aK"/></g><path fill="#fff" d="M497-251l268-831h189L566 0H425L33-1082h189" id="bc"/><g id="l"><use transform="matrix(0.010416666666666668,0,0,0.010416666666666668,0,0)" xlink:href="#bb"/><use transform="matrix(0.010416666666666668,0,0,0.010416666666666668,5.802083333333334,0)" xlink:href="#aZ"/><use transform="matrix(0.010416666666666668,0,0,0.010416666666666668,9.520833333333334,0)" xlink:href="#bc"/><use transform="matrix(0.010416666666666668,0,0,0.010416666666666668,19.71875,0)" xlink:href="#aW"/></g><path fill="#fff" d="M491 20c-241-1-355-148-355-398v-704h185v699c0 164 67 246 200 246 141 0 235-53 282-158v-787h185V0H812l-4-107C736-22 630 20 491 20" id="bd"/><g id="m"><use transform="matrix(0.010416666666666668,0,0,0.010416666666666668,0,0)" xlink:href="#ba"/><use transform="matrix(0.010416666666666668,0,0,0.010416666666666668,11.968750000000002,0)" xlink:href="#bd"/><use transform="matrix(0.010416666666666668,0,0,0.010416666666666668,23.729166666666668,0)" xlink:href="#aK"/></g><path fill="#fff" d="M704-1390c-164-38-297 28-288 194v114h231v143H416V0H231v-939H60v-143h171v-111c-12-274 208-416 483-347" id="be"/><g id="n"><use transform="matrix(0.010416666666666668,0,0,0.010416666666666668,0,0)" xlink:href="#be"/><use transform="matrix(0.010416666666666668,0,0,0.010416666666666668,7.156250000000001,0)" xlink:href="#aW"/><use transform="matrix(0.010416666666666668,0,0,0.010416666666666668,18.458333333333336,0)" xlink:href="#aW"/><use transform="matrix(0.010416666666666668,0,0,0.010416666666666668,29.76041666666667,0)" xlink:href="#aR"/></g><path fill="#fff" d="M442-501L326-380V0H141v-1536h185v929c135-169 291-317 436-475h225L566-630 1036 0H819" id="bf"/><g id="o"><use transform="matrix(0.010416666666666668,0,0,0.010416666666666668,0,0)" xlink:href="#aN"/><use transform="matrix(0.010416666666666668,0,0,0.010416666666666668,11.604166666666668,0)" xlink:href="#aT"/><use transform="matrix(0.010416666666666668,0,0,0.010416666666666668,22.604166666666668,0)" xlink:href="#bf"/><use transform="matrix(0.010416666666666668,0,0,0.010416666666666668,33.41666666666667,0)" xlink:href="#aP"/><use transform="matrix(0.010416666666666668,0,0,0.010416666666666668,38.59375000000001,0)" xlink:href="#aO"/><use transform="matrix(0.010416666666666668,0,0,0.010416666666666668,50.364583333333336,0)" xlink:href="#aQ"/></g><path fill="#fff" d="M663-916c-163-27-288 18-338 148V0H140v-1082h180l3 125c61-97 147-145 258-145 36 0 63 5 82 14v172" id="bg"/><g id="p"><use transform="matrix(0.010416666666666668,0,0,0.010416666666666668,0,0)" xlink:href="#ba"/><use transform="matrix(0.010416666666666668,0,0,0.010416666666666668,11.968750000000002,0)" xlink:href="#aW"/><use transform="matrix(0.010416666666666668,0,0,0.010416666666666668,23.270833333333336,0)" xlink:href="#be"/><use transform="matrix(0.010416666666666668,0,0,0.010416666666666668,30.677083333333336,0)" xlink:href="#aL"/><use transform="matrix(0.010416666666666668,0,0,0.010416666666666668,42.84374999999999,0)" xlink:href="#bg"/><use transform="matrix(0.010416666666666668,0,0,0.010416666666666668,49.864583333333336,0)" xlink:href="#aW"/></g><path fill="#fff" d="M1240-945c-141 0-250 95-250 227V0H804v-709c0-157-77-236-231-236-121 0-204 52-249 155V0H139v-1082h175l5 120c79-93 186-140 321-140 151 0 254 58 309 174 69-98 181-174 345-174 237 0 362 126 362 377V0h-185v-714c-2-159-67-231-231-231" id="bh"/><g id="q"><use transform="matrix(0.010416666666666668,0,0,0.010416666666666668,0,0)" xlink:href="#bh"/><use transform="matrix(0.010416666666666668,0,0,0.010416666666666668,18.697916666666668,0)" xlink:href="#aL"/><use transform="matrix(0.010416666666666668,0,0,0.010416666666666668,30.864583333333336,0)" xlink:href="#aO"/><use transform="matrix(0.010416666666666668,0,0,0.010416666666666668,42.63541666666667,0)" xlink:href="#aW"/><use transform="matrix(0.010416666666666668,0,0,0.010416666666666668,53.80208333333334,0)" xlink:href="#aS"/></g><g id="r"><use transform="matrix(0.010416666666666668,0,0,0.010416666666666668,0,0)" xlink:href="#bh"/><use transform="matrix(0.010416666666666668,0,0,0.010416666666666668,18.697916666666668,0)" xlink:href="#aS"/></g><g id="s"><use transform="matrix(0.010416666666666668,0,0,0.010416666666666668,0,0)" xlink:href="#aN"/><use transform="matrix(0.010416666666666668,0,0,0.010416666666666668,11.604166666666668,0)" xlink:href="#aU"/><use transform="matrix(0.010416666666666668,0,0,0.010416666666666668,23.635416666666668,0)" xlink:href="#bc"/><use transform="matrix(0.010416666666666668,0,0,0.010416666666666668,33.81250000000001,0)" xlink:href="#aN"/><use transform="matrix(0.010416666666666668,0,0,0.010416666666666668,45.41666666666667,0)" xlink:href="#aO"/><use transform="matrix(0.010416666666666668,0,0,0.010416666666666668,57.18750000000001,0)" xlink:href="#aK"/><use transform="matrix(0.010416666666666668,0,0,0.010416666666666668,64.15625000000001,0)" xlink:href="#aN"/><use transform="matrix(0.010416666666666668,0,0,0.010416666666666668,75.76041666666669,0)" xlink:href="#aQ"/><use transform="matrix(0.010416666666666668,0,0,0.010416666666666668,87.72916666666667,0)" xlink:href="#aW"/><use transform="matrix(0.010416666666666668,0,0,0.010416666666666668,99.03125000000001,0)" xlink:href="#aU"/></g><path d="M973-380H363L226 0H28l556-1456h168L1309 0h-197zM421-538h495l-248-681" id="bi"/><path d="M375 0H183v-1456h192V0" id="bj"/><path d="M1175-1298H707V0H516v-1298H49v-158h1126v158" id="bk"/><g id="t"><use transform="matrix(0.010416666666666668,0,0,0.010416666666666668,0,0)" xlink:href="#bi"/><use transform="matrix(0.010416666666666668,0,0,0.010416666666666668,13.916666666666668,0)" xlink:href="#bj"/><use transform="matrix(0.010416666666666668,0,0,0.010416666666666668,19.416666666666668,0)" xlink:href="#bk"/><use transform="matrix(0.010416666666666668,0,0,0.010416666666666668,31.32291666666667,0)" xlink:href="#bi"/></g><path d="M704-1390c-164-38-297 28-288 194v114h231v143H416V0H231v-939H60v-143h171v-111c-12-274 208-416 483-347" id="bl"/><path d="M584 20C278 26 81-227 91-551c10-320 175-545 491-551 308-5 503 247 494 573-9 322-175 543-492 549zm-2-970c-208 0-305 185-305 421 0 216 106 398 307 398 211 0 307-186 307-420 0-214-109-399-309-399" id="bm"/><path d="M663-916c-163-27-288 18-338 148V0H140v-1082h180l3 125c61-97 147-145 258-145 36 0 63 5 82 14v172" id="bn"/><g id="u"><use transform="matrix(0.010416666666666668,0,0,0.010416666666666668,0,0)" xlink:href="#bl"/><use transform="matrix(0.010416666666666668,0,0,0.010416666666666668,7.406250000000001,0)" xlink:href="#bm"/><use transform="matrix(0.010416666666666668,0,0,0.010416666666666668,19.572916666666668,0)" xlink:href="#bn"/></g><path d="M599-131c141 0 220-65 285-146l113 88C906-50 770 20 589 20 281 21 93-214 93-545c0-223 93-397 233-485 74-48 154-72 240-72 300 2 449 218 445 537v77H278c0 197 129 357 321 357zm227-509c-3-180-88-310-260-310-170 0-264 140-282 310h542" id="bo"/><path d="M491 20c-241-1-355-148-355-398v-704h185v699c0 164 67 246 200 246 141 0 235-53 282-158v-787h185V0H812l-4-107C736-22 630 20 491 20" id="bp"/><path d="M538-131c121 0 232-49 232-156 0-50-20-88-56-117-73-60-334-92-420-143-92-55-162-110-162-238 0-190 192-317 400-317 223 0 414 129 413 338H759c0-108-110-186-227-186-119 0-215 53-215 159 0 45 18 78 53 101 76 52 331 90 416 139 98 57 169 115 169 251C955-92 760 20 538 20c-176 0-314-68-386-174-38-55-57-115-57-179h185c6 129 116 202 258 202" id="bq"/><path d="M341 0H156v-1082h185V0zm-91-1264c-68 0-108-42-109-105 0-62 41-107 109-107s110 44 110 107-42 105-110 105" id="br"/><path d="M589-945c-131 0-219 81-264 174V0H140v-1082h175l6 136c83-104 191-156 324-156 229 0 346 129 346 387V0H806v-716c-2-153-65-229-217-229" id="bs"/><path d="M521 20C240 20 96-239 96-550c0-303 147-552 427-552 132 0 235 47 309 140l9-120h169V-26c4 277-183 454-459 452-165-1-334-81-400-187l96-111c79 98 176 147 291 147 180 1 288-109 286-290v-93C750-23 649 20 521 20zm48-965c-209 0-287 178-287 416 0 217 86 392 285 392 117 0 202-53 257-159v-494c-57-103-142-155-255-155" id="bt"/><g id="v"><use transform="matrix(0.010416666666666668,0,0,0.010416666666666668,0,0)" xlink:href="#bn"/><use transform="matrix(0.010416666666666668,0,0,0.010416666666666668,7.020833333333334,0)" xlink:href="#bo"/><use transform="matrix(0.010416666666666668,0,0,0.010416666666666668,18.322916666666668,0)" xlink:href="#bl"/><use transform="matrix(0.010416666666666668,0,0,0.010416666666666668,25.729166666666668,0)" xlink:href="#bp"/><use transform="matrix(0.010416666666666668,0,0,0.010416666666666668,37.489583333333336,0)" xlink:href="#bq"/><use transform="matrix(0.010416666666666668,0,0,0.010416666666666668,48.489583333333336,0)" xlink:href="#br"/><use transform="matrix(0.010416666666666668,0,0,0.010416666666666668,53.66666666666667,0)" xlink:href="#bs"/><use transform="matrix(0.010416666666666668,0,0,0.010416666666666668,65.4375,0)" xlink:href="#bt"/></g><path d="M1240-945c-141 0-250 95-250 227V0H804v-709c0-157-77-236-231-236-121 0-204 52-249 155V0H139v-1082h175l5 120c79-93 186-140 321-140 151 0 254 58 309 174 69-98 181-174 345-174 237 0 362 126 362 377V0h-185v-714c-2-159-67-231-231-231" id="bu"/><path d="M494-271l252-811h198L509 167C425 381 299 474 84 421V271c167 16 242-37 283-173l41-110L22-1082h202" id="bv"/><g id="w"><use transform="matrix(0.010416666666666668,0,0,0.010416666666666668,0,0)" xlink:href="#bu"/><use transform="matrix(0.010416666666666668,0,0,0.010416666666666668,18.697916666666668,0)" xlink:href="#bv"/></g><path d="M456 20C285 20 205-92 206-268v-671H9v-143h197v-262h185v262h202v143H391v671c-9 125 92 149 207 118V0c-49 13-96 20-142 20" id="bw"/><g id="x"><use transform="matrix(0.010416666666666668,0,0,0.010416666666666668,0,0)" xlink:href="#bq"/><use transform="matrix(0.010416666666666668,0,0,0.010416666666666668,11.000000000000002,0)" xlink:href="#br"/><use transform="matrix(0.010416666666666668,0,0,0.010416666666666668,16.177083333333336,0)" xlink:href="#bq"/><use transform="matrix(0.010416666666666668,0,0,0.010416666666666668,27.177083333333336,0)" xlink:href="#bw"/><use transform="matrix(0.010416666666666668,0,0,0.010416666666666668,34.145833333333336,0)" xlink:href="#bo"/><use transform="matrix(0.010416666666666668,0,0,0.010416666666666668,45.44791666666667,0)" xlink:href="#bn"/></g><path d="M486-1476c244 0 401 141 400 380 0 117-54 232-162 345L615-643c-49 54-73 132-73 233H357c6-184 32-232 129-341 78-87 215-190 215-339 0-139-76-224-215-224-128 0-227 74-226 199H75c0-220 182-361 411-361zM458 11c-68 0-108-41-109-104 0-63 41-106 109-106s110 43 110 106S526 11 458 11" id="bx"/><g id="y"><use transform="matrix(0.010416666666666668,0,0,0.010416666666666668,0,0)" xlink:href="#bu"/><use transform="matrix(0.010416666666666668,0,0,0.010416666666666668,18.697916666666668,0)" xlink:href="#bm"/><use transform="matrix(0.010416666666666668,0,0,0.010416666666666668,30.864583333333336,0)" xlink:href="#bs"/><use transform="matrix(0.010416666666666668,0,0,0.010416666666666668,42.63541666666667,0)" xlink:href="#bo"/><use transform="matrix(0.010416666666666668,0,0,0.010416666666666668,53.80208333333334,0)" xlink:href="#bv"/><use transform="matrix(0.010416666666666668,0,0,0.010416666666666668,63.89583333333334,0)" xlink:href="#bx"/></g><path d="M631-137c179 0 314-70 314-231 0-71-25-127-75-166s-141-77-272-115c-165-47-285-106-360-175s-112-154-112-255c0-245 231-397 495-397 206 0 369 89 449 218 43 68 65 142 65 223H942c0-184-129-283-321-283-172 0-299 76-301 236 0 59 26 109 76 150s135 78 256 113c205 59 345 116 436 256 35 53 50 119 50 193-2 256-231 398-507 390C333 12 90-129 80-422h193c0 187 160 285 358 285" id="by"/><path d="M589-945c-131 0-219 81-264 174V0H140v-1536h185v585c82-101 189-151 320-151 229 0 346 129 346 387V0H806v-716c-2-153-65-229-217-229" id="bz"/><path d="M253-1536c2 169-14 319-21 479H103l1-479h149" id="bA"/><g id="z"><use transform="matrix(0.010416666666666668,0,0,0.010416666666666668,0,0)" xlink:href="#by"/><use transform="matrix(0.010416666666666668,0,0,0.010416666666666668,12.656250000000002,0)" xlink:href="#bz"/><use transform="matrix(0.010416666666666668,0,0,0.010416666666666668,24.406250000000004,0)" xlink:href="#bo"/><use transform="matrix(0.010416666666666668,0,0,0.010416666666666668,35.56250000000001,0)" xlink:href="#bA"/><use transform="matrix(0.010416666666666668,0,0,0.010416666666666668,38.44791666666667,0)" xlink:href="#bq"/></g><path d="M561-1102c238-4 403 126 403 351v498c0 99 13 178 38 237V0H808c-11-21-19-59-26-114C696-25 593 20 474 20c-199 0-368-130-365-320 4-251 214-359 490-356h180v-85c-1-135-86-212-229-212-115 0-232 67-233 171H131c20-205 206-316 430-320zM294-326c0 117 90 185 207 185 122 0 239-75 278-162v-222H634c-227 0-340 66-340 199" id="bB"/><path d="M341 0H156v-1536h185V0" id="bC"/><path d="M1098-255l208-827h185L1176 0h-150L763-820 507 0H357L43-1082h184l213 810 252-810h149" id="bD"/><g id="A"><use transform="matrix(0.010416666666666668,0,0,0.010416666666666668,0,0)" xlink:href="#bB"/><use transform="matrix(0.010416666666666668,0,0,0.010416666666666668,11.604166666666668,0)" xlink:href="#bC"/><use transform="matrix(0.010416666666666668,0,0,0.010416666666666668,16.78125,0)" xlink:href="#bD"/><use transform="matrix(0.010416666666666668,0,0,0.010416666666666668,32.8125,0)" xlink:href="#bB"/><use transform="matrix(0.010416666666666668,0,0,0.010416666666666668,44.26041666666667,0)" xlink:href="#bv"/><use transform="matrix(0.010416666666666668,0,0,0.010416666666666668,54.35416666666667,0)" xlink:href="#bq"/></g><path d="M442-501L326-380V0H141v-1536h185v929c135-169 291-317 436-475h225L566-630 1036 0H819" id="bE"/><g id="B"><use transform="matrix(0.010416666666666668,0,0,0.010416666666666668,0,0)" xlink:href="#bB"/><use transform="matrix(0.010416666666666668,0,0,0.010416666666666668,11.604166666666668,0)" xlink:href="#bq"/><use transform="matrix(0.010416666666666668,0,0,0.010416666666666668,22.604166666666668,0)" xlink:href="#bE"/><use transform="matrix(0.010416666666666668,0,0,0.010416666666666668,33.41666666666667,0)" xlink:href="#br"/><use transform="matrix(0.010416666666666668,0,0,0.010416666666666668,38.59375000000001,0)" xlink:href="#bs"/><use transform="matrix(0.010416666666666668,0,0,0.010416666666666668,50.364583333333336,0)" xlink:href="#bt"/></g><path d="M134 290L29 218c97-132 105-239 98-437h181c1 144 5 239-50 347-34 67-74 121-124 162" id="bF"/><g id="C"><use transform="matrix(0.010416666666666668,0,0,0.010416666666666668,0,0)" xlink:href="#bu"/><use transform="matrix(0.010416666666666668,0,0,0.010416666666666668,18.697916666666668,0)" xlink:href="#bm"/><use transform="matrix(0.010416666666666668,0,0,0.010416666666666668,30.864583333333336,0)" xlink:href="#bs"/><use transform="matrix(0.010416666666666668,0,0,0.010416666666666668,42.63541666666667,0)" xlink:href="#bo"/><use transform="matrix(0.010416666666666668,0,0,0.010416666666666668,53.80208333333334,0)" xlink:href="#bv"/><use transform="matrix(0.010416666666666668,0,0,0.010416666666666668,62.78125000000001,0)" xlink:href="#bF"/></g><path d="M634-1102c292 0 422 254 422 573 0 298-143 547-420 549-137 0-242-48-317-145L310 0H140v-1536h185v573c75-93 178-139 309-139zm-44 965c207 0 281-175 281-413 0-224-79-395-283-395-122 0-210 57-263 170v468c57 113 145 170 265 170" id="bG"/><g id="D"><use transform="matrix(0.010416666666666668,0,0,0.010416666666666668,0,0)" xlink:href="#bG"/><use transform="matrix(0.010416666666666668,0,0,0.010416666666666668,11.968750000000002,0)" xlink:href="#bp"/><use transform="matrix(0.010416666666666668,0,0,0.010416666666666668,23.729166666666668,0)" xlink:href="#bw"/></g><use transform="matrix(0.010416666666666668,0,0,0.010416666666666668,0,0)" xlink:href="#bj" id="E"/><path d="M497-251l268-831h189L566 0H425L33-1082h189" id="bH"/><g id="F"><use transform="matrix(0.010416666666666668,0,0,0.010416666666666668,0,0)" xlink:href="#bz"/><use transform="matrix(0.010416666666666668,0,0,0.010416666666666668,11.750000000000002,0)" xlink:href="#bB"/><use transform="matrix(0.010416666666666668,0,0,0.010416666666666668,23.197916666666668,0)" xlink:href="#bH"/><use transform="matrix(0.010416666666666668,0,0,0.010416666666666668,33.395833333333336,0)" xlink:href="#bo"/></g><g id="G"><use transform="matrix(0.010416666666666668,0,0,0.010416666666666668,0,0)" xlink:href="#bm"/><use transform="matrix(0.010416666666666668,0,0,0.010416666666666668,12.166666666666668,0)" xlink:href="#bD"/><use transform="matrix(0.010416666666666668,0,0,0.010416666666666668,28.19791666666667,0)" xlink:href="#bs"/></g><path d="M258 11c-71 0-114-43-114-108 0-67 42-112 114-112s116 45 116 112c-1 65-45 108-116 108" id="bI"/><g id="H"><use transform="matrix(0.010416666666666668,0,0,0.010416666666666668,0,0)" xlink:href="#bG"/><use transform="matrix(0.010416666666666668,0,0,0.010416666666666668,11.968750000000002,0)" xlink:href="#br"/><use transform="matrix(0.010416666666666668,0,0,0.010416666666666668,17.145833333333336,0)" xlink:href="#bC"/><use transform="matrix(0.010416666666666668,0,0,0.010416666666666668,22.322916666666668,0)" xlink:href="#bC"/><use transform="matrix(0.010416666666666668,0,0,0.010416666666666668,27.500000000000007,0)" xlink:href="#bq"/><use transform="matrix(0.010416666666666668,0,0,0.010416666666666668,38.50000000000001,0)" xlink:href="#bI"/></g><path d="M730-137c145 0 253-29 323-105v-327H716v-156h528v534C1148-51 964 20 729 20c-394 0-598-279-607-678v-127c-5-410 194-690 585-691 310-1 499 171 537 447h-192c-36-193-151-289-344-289-285 0-393 220-393 528v119c-5 296 140 534 415 534" id="bJ"/><g id="I"><use transform="matrix(0.010416666666666668,0,0,0.010416666666666668,0,0)" xlink:href="#bJ"/><use transform="matrix(0.010416666666666668,0,0,0.010416666666666668,14.531250000000002,0)" xlink:href="#br"/><use transform="matrix(0.010416666666666668,0,0,0.010416666666666668,19.708333333333336,0)" xlink:href="#bH"/><use transform="matrix(0.010416666666666668,0,0,0.010416666666666668,30.04166666666667,0)" xlink:href="#br"/><use transform="matrix(0.010416666666666668,0,0,0.010416666666666668,35.21875000000001,0)" xlink:href="#bs"/><use transform="matrix(0.010416666666666668,0,0,0.010416666666666668,46.989583333333336,0)" xlink:href="#bt"/></g><g id="J"><use transform="matrix(0.010416666666666668,0,0,0.010416666666666668,0,0)" xlink:href="#bz"/><use transform="matrix(0.010416666666666668,0,0,0.010416666666666668,11.750000000000002,0)" xlink:href="#bo"/><use transform="matrix(0.010416666666666668,0,0,0.010416666666666668,23.052083333333336,0)" xlink:href="#bn"/></g><g id="K"><use transform="matrix(0.010416666666666668,0,0,0.010416666666666668,0,0)" xlink:href="#bu"/><use transform="matrix(0.010416666666666668,0,0,0.010416666666666668,18.697916666666668,0)" xlink:href="#bm"/><use transform="matrix(0.010416666666666668,0,0,0.010416666666666668,30.864583333333336,0)" xlink:href="#bs"/><use transform="matrix(0.010416666666666668,0,0,0.010416666666666668,42.63541666666667,0)" xlink:href="#bo"/><use transform="matrix(0.010416666666666668,0,0,0.010416666666666668,53.80208333333334,0)" xlink:href="#bv"/></g><path d="M632-1102c291 0 422 251 422 573 0 297-141 548-419 549-131 0-235-42-310-125v521H140v-1498h169l9 120c75-93 180-140 314-140zm-53 971c207 0 290-180 290-419 0-218-92-395-292-395-112 0-196 50-252 149v517c55 99 140 148 254 148" id="bK"/><path d="M520 20C244 20 95-247 95-550c0-298 151-550 427-552 127 0 227 43 301 130v-564h185V0H838l-9-116C755-25 652 20 520 20zm48-965c-210 0-288 177-288 416 0 218 87 392 286 392 117 0 203-53 257-158v-497c-55-102-140-153-255-153" id="bL"/><g id="L"><use transform="matrix(0.010416666666666668,0,0,0.010416666666666668,0,0)" xlink:href="#bn"/><use transform="matrix(0.010416666666666668,0,0,0.010416666666666668,7.020833333333334,0)" xlink:href="#bo"/><use transform="matrix(0.010416666666666668,0,0,0.010416666666666668,18.322916666666668,0)" xlink:href="#bK"/><use transform="matrix(0.010416666666666668,0,0,0.010416666666666668,30.29166666666667,0)" xlink:href="#bo"/><use transform="matrix(0.010416666666666668,0,0,0.010416666666666668,41.59375000000001,0)" xlink:href="#bB"/><use transform="matrix(0.010416666666666668,0,0,0.010416666666666668,53.19791666666667,0)" xlink:href="#bw"/><use transform="matrix(0.010416666666666668,0,0,0.010416666666666668,60.16666666666667,0)" xlink:href="#bo"/><use transform="matrix(0.010416666666666668,0,0,0.010416666666666668,71.46875,0)" xlink:href="#bL"/><use transform="matrix(0.010416666666666668,0,0,0.010416666666666668,83.5,0)" xlink:href="#bC"/><use transform="matrix(0.010416666666666668,0,0,0.010416666666666668,88.67708333333333,0)" xlink:href="#bv"/></g><g id="M"><use transform="matrix(0.010416666666666668,0,0,0.010416666666666668,0,0)" xlink:href="#bu"/><use transform="matrix(0.010416666666666668,0,0,0.010416666666666668,18.697916666666668,0)" xlink:href="#bB"/><use transform="matrix(0.010416666666666668,0,0,0.010416666666666668,30.302083333333336,0)" xlink:href="#bE"/><use transform="matrix(0.010416666666666668,0,0,0.010416666666666668,40.90625000000001,0)" xlink:href="#bo"/><use transform="matrix(0.010416666666666668,0,0,0.010416666666666668,52.208333333333336,0)" xlink:href="#bq"/></g><g id="N"><use transform="matrix(0.010416666666666668,0,0,0.010416666666666668,0,0)" xlink:href="#bu"/><use transform="matrix(0.010416666666666668,0,0,0.010416666666666668,18.697916666666668,0)" xlink:href="#bo"/></g><g id="O"><use transform="matrix(0.010416666666666668,0,0,0.010416666666666668,0,0)" xlink:href="#bl"/><use transform="matrix(0.010416666666666668,0,0,0.010416666666666668,7.156250000000001,0)" xlink:href="#bo"/><use transform="matrix(0.010416666666666668,0,0,0.010416666666666668,18.458333333333336,0)" xlink:href="#bo"/><use transform="matrix(0.010416666666666668,0,0,0.010416666666666668,29.76041666666667,0)" xlink:href="#bC"/></g><g id="P"><use transform="matrix(0.010416666666666668,0,0,0.010416666666666668,0,0)" xlink:href="#bp"/><use transform="matrix(0.010416666666666668,0,0,0.010416666666666668,11.760416666666668,0)" xlink:href="#bq"/><use transform="matrix(0.010416666666666668,0,0,0.010416666666666668,22.760416666666668,0)" xlink:href="#bo"/><use transform="matrix(0.010416666666666668,0,0,0.010416666666666668,34.06250000000001,0)" xlink:href="#bL"/><use transform="matrix(0.010416666666666668,0,0,0.010416666666666668,46.09375000000001,0)" xlink:href="#bI"/></g><path d="M248 11c-71 0-114-43-114-108 0-67 42-112 114-112s116 45 116 112c-1 65-45 108-116 108zm1-883c-71 0-114-43-114-108 0-67 42-112 114-112s116 45 116 112c-1 65-45 108-116 108" id="bM"/><g id="Q"><use transform="matrix(0.010416666666666668,0,0,0.010416666666666668,0,0)" xlink:href="#bu"/><use transform="matrix(0.010416666666666668,0,0,0.010416666666666668,18.697916666666668,0)" xlink:href="#bm"/><use transform="matrix(0.010416666666666668,0,0,0.010416666666666668,30.864583333333336,0)" xlink:href="#bs"/><use transform="matrix(0.010416666666666668,0,0,0.010416666666666668,42.63541666666667,0)" xlink:href="#bo"/><use transform="matrix(0.010416666666666668,0,0,0.010416666666666668,53.80208333333334,0)" xlink:href="#bv"/><use transform="matrix(0.010416666666666668,0,0,0.010416666666666668,63.89583333333334,0)" xlink:href="#bM"/></g><path d="M832-402c-1-179-119-264-303-265H390v-151h139c164 0 281-91 281-250 0-171-85-256-255-256-154 0-265 99-263 250H107c-4-235 205-402 448-402 266 0 444 150 440 412-2 148-109 272-229 317 147 45 249 158 251 341 3 262-197 426-461 426C299 20 91-135 94-384h186c-2 156 116 253 276 253 176 0 277-96 276-271" id="bN"/><use transform="matrix(0.010416666666666668,0,0,0.010416666666666668,0,0)" xlink:href="#bN" id="R"/><g id="S"><use transform="matrix(0.010416666666666668,0,0,0.010416666666666668,0,0)" xlink:href="#bu"/><use transform="matrix(0.010416666666666668,0,0,0.010416666666666668,18.697916666666668,0)" xlink:href="#bv"/><use transform="matrix(0.010416666666666668,0,0,0.010416666666666668,28.79166666666667,0)" xlink:href="#bM"/></g><path d="M569-1476c255 0 440 146 439 390 0 143-91 314-274 512L344-151h731V0H121v-133l504-560c75-85 125-155 155-207 105-184 6-424-211-424-183 0-293 113-291 297H93c-3-270 199-449 476-449" id="bO"/><use transform="matrix(0.010416666666666668,0,0,0.010416666666666668,0,0)" xlink:href="#bO" id="T"/><g id="U"><use transform="matrix(0.010416666666666668,0,0,0.010416666666666668,0,0)" xlink:href="#bi"/><use transform="matrix(0.010416666666666668,0,0,0.010416666666666668,13.916666666666668,0)" xlink:href="#bj"/><use transform="matrix(0.010416666666666668,0,0,0.010416666666666668,19.416666666666668,0)" xlink:href="#bk"/><use transform="matrix(0.010416666666666668,0,0,0.010416666666666668,31.32291666666667,0)" xlink:href="#bi"/><use transform="matrix(0.010416666666666668,0,0,0.010416666666666668,45.239583333333336,0)" xlink:href="#bM"/></g><path d="M729 0H543v-1233l-373 137v-168l530-199h29V0" id="bP"/><use transform="matrix(0.010416666666666668,0,0,0.010416666666666668,0,0)" xlink:href="#bP" id="V"/><g id="W"><use transform="matrix(0.010416666666666668,0,0,0.010416666666666668,0,0)" xlink:href="#bl"/><use transform="matrix(0.010416666666666668,0,0,0.010416666666666668,7.406250000000001,0)" xlink:href="#bm"/><use transform="matrix(0.010416666666666668,0,0,0.010416666666666668,19.572916666666668,0)" xlink:href="#bn"/><use transform="matrix(0.010416666666666668,0,0,0.010416666666666668,26.79166666666667,0)" xlink:href="#bM"/></g><g id="X"><use transform="matrix(0.010416666666666668,0,0,0.010416666666666668,0,0)" xlink:href="#bn"/><use transform="matrix(0.010416666666666668,0,0,0.010416666666666668,7.020833333333334,0)" xlink:href="#bo"/><use transform="matrix(0.010416666666666668,0,0,0.010416666666666668,18.322916666666668,0)" xlink:href="#bl"/><use transform="matrix(0.010416666666666668,0,0,0.010416666666666668,25.729166666666668,0)" xlink:href="#bp"/><use transform="matrix(0.010416666666666668,0,0,0.010416666666666668,37.489583333333336,0)" xlink:href="#bq"/><use transform="matrix(0.010416666666666668,0,0,0.010416666666666668,48.489583333333336,0)" xlink:href="#br"/><use transform="matrix(0.010416666666666668,0,0,0.010416666666666668,53.66666666666667,0)" xlink:href="#bs"/><use transform="matrix(0.010416666666666668,0,0,0.010416666666666668,65.4375,0)" xlink:href="#bt"/><use transform="matrix(0.010416666666666668,0,0,0.010416666666666668,77.40625,0)" xlink:href="#bM"/></g><g id="Y"><use transform="matrix(0.010416666666666668,0,0,0.010416666666666668,0,0)" xlink:href="#bq"/><use transform="matrix(0.010416666666666668,0,0,0.010416666666666668,11.000000000000002,0)" xlink:href="#br"/><use transform="matrix(0.010416666666666668,0,0,0.010416666666666668,16.177083333333336,0)" xlink:href="#bq"/><use transform="matrix(0.010416666666666668,0,0,0.010416666666666668,27.177083333333336,0)" xlink:href="#bw"/><use transform="matrix(0.010416666666666668,0,0,0.010416666666666668,34.145833333333336,0)" xlink:href="#bo"/><use transform="matrix(0.010416666666666668,0,0,0.010416666666666668,45.44791666666667,0)" xlink:href="#bn"/><use transform="matrix(0.010416666666666668,0,0,0.010416666666666668,52.66666666666667,0)" xlink:href="#bM"/></g><g id="Z"><use transform="matrix(0.010416666666666668,0,0,0.010416666666666668,0,0)" xlink:href="#by"/><use transform="matrix(0.010416666666666668,0,0,0.010416666666666668,12.656250000000002,0)" xlink:href="#bz"/><use transform="matrix(0.010416666666666668,0,0,0.010416666666666668,24.406250000000004,0)" xlink:href="#bo"/><use transform="matrix(0.010416666666666668,0,0,0.010416666666666668,35.56250000000001,0)" xlink:href="#bA"/><use transform="matrix(0.010416666666666668,0,0,0.010416666666666668,38.44791666666667,0)" xlink:href="#bq"/><use transform="matrix(0.010416666666666668,0,0,0.010416666666666668,49.44791666666667,0)" xlink:href="#bM"/></g><g id="aa"><use transform="matrix(0.010416666666666668,0,0,0.010416666666666668,0,0)" xlink:href="#bB"/><use transform="matrix(0.010416666666666668,0,0,0.010416666666666668,11.604166666666668,0)" xlink:href="#bC"/><use transform="matrix(0.010416666666666668,0,0,0.010416666666666668,16.78125,0)" xlink:href="#bD"/><use transform="matrix(0.010416666666666668,0,0,0.010416666666666668,32.8125,0)" xlink:href="#bB"/><use transform="matrix(0.010416666666666668,0,0,0.010416666666666668,44.26041666666667,0)" xlink:href="#bv"/><use transform="matrix(0.010416666666666668,0,0,0.010416666666666668,54.35416666666667,0)" xlink:href="#bq"/><use transform="matrix(0.010416666666666668,0,0,0.010416666666666668,65.35416666666667,0)" xlink:href="#bM"/></g><g id="ab"><use transform="matrix(0.010416666666666668,0,0,0.010416666666666668,0,0)" xlink:href="#bB"/><use transform="matrix(0.010416666666666668,0,0,0.010416666666666668,11.604166666666668,0)" xlink:href="#bq"/><use transform="matrix(0.010416666666666668,0,0,0.010416666666666668,22.604166666666668,0)" xlink:href="#bE"/><use transform="matrix(0.010416666666666668,0,0,0.010416666666666668,33.41666666666667,0)" xlink:href="#br"/><use transform="matrix(0.010416666666666668,0,0,0.010416666666666668,38.59375000000001,0)" xlink:href="#bs"/><use transform="matrix(0.010416666666666668,0,0,0.010416666666666668,50.364583333333336,0)" xlink:href="#bt"/><use transform="matrix(0.010416666666666668,0,0,0.010416666666666668,62.33333333333334,0)" xlink:href="#bM"/></g><g id="ac"><use transform="matrix(0.010416666666666668,0,0,0.010416666666666668,0,0)" xlink:href="#bG"/><use transform="matrix(0.010416666666666668,0,0,0.010416666666666668,11.968750000000002,0)" xlink:href="#bp"/><use transform="matrix(0.010416666666666668,0,0,0.010416666666666668,23.729166666666668,0)" xlink:href="#bw"/><use transform="matrix(0.010416666666666668,0,0,0.010416666666666668,30.69791666666667,0)" xlink:href="#bM"/></g><g id="ad"><use transform="matrix(0.010416666666666668,0,0,0.010416666666666668,0,0)" xlink:href="#bj"/><use transform="matrix(0.010416666666666668,0,0,0.010416666666666668,5.802083333333334,0)" xlink:href="#bM"/></g><g id="ae"><use transform="matrix(0.010416666666666668,0,0,0.010416666666666668,0,0)" xlink:href="#bz"/><use transform="matrix(0.010416666666666668,0,0,0.010416666666666668,11.750000000000002,0)" xlink:href="#bB"/><use transform="matrix(0.010416666666666668,0,0,0.010416666666666668,23.197916666666668,0)" xlink:href="#bH"/><use transform="matrix(0.010416666666666668,0,0,0.010416666666666668,33.395833333333336,0)" xlink:href="#bo"/><use transform="matrix(0.010416666666666668,0,0,0.010416666666666668,44.69791666666667,0)" xlink:href="#bM"/></g><g id="af"><use transform="matrix(0.010416666666666668,0,0,0.010416666666666668,0,0)" xlink:href="#bm"/><use transform="matrix(0.010416666666666668,0,0,0.010416666666666668,12.166666666666668,0)" xlink:href="#bD"/><use transform="matrix(0.010416666666666668,0,0,0.010416666666666668,28.19791666666667,0)" xlink:href="#bs"/><use transform="matrix(0.010416666666666668,0,0,0.010416666666666668,39.96875000000001,0)" xlink:href="#bM"/></g><g id="ag"><use transform="matrix(0.010416666666666668,0,0,0.010416666666666668,0,0)" xlink:href="#bG"/><use transform="matrix(0.010416666666666668,0,0,0.010416666666666668,11.968750000000002,0)" xlink:href="#br"/><use transform="matrix(0.010416666666666668,0,0,0.010416666666666668,17.145833333333336,0)" xlink:href="#bC"/><use transform="matrix(0.010416666666666668,0,0,0.010416666666666668,22.322916666666668,0)" xlink:href="#bC"/><use transform="matrix(0.010416666666666668,0,0,0.010416666666666668,27.500000000000007,0)" xlink:href="#bq"/><use transform="matrix(0.010416666666666668,0,0,0.010416666666666668,38.50000000000001,0)" xlink:href="#bM"/></g><g id="ah"><use transform="matrix(0.010416666666666668,0,0,0.010416666666666668,0,0)" xlink:href="#bJ"/><use transform="matrix(0.010416666666666668,0,0,0.010416666666666668,14.531250000000002,0)" xlink:href="#br"/><use transform="matrix(0.010416666666666668,0,0,0.010416666666666668,19.708333333333336,0)" xlink:href="#bH"/><use transform="matrix(0.010416666666666668,0,0,0.010416666666666668,30.04166666666667,0)" xlink:href="#br"/><use transform="matrix(0.010416666666666668,0,0,0.010416666666666668,35.21875000000001,0)" xlink:href="#bs"/><use transform="matrix(0.010416666666666668,0,0,0.010416666666666668,46.989583333333336,0)" xlink:href="#bt"/><use transform="matrix(0.010416666666666668,0,0,0.010416666666666668,58.95833333333334,0)" xlink:href="#bM"/></g><g id="ai"><use transform="matrix(0.010416666666666668,0,0,0.010416666666666668,0,0)" xlink:href="#bz"/><use transform="matrix(0.010416666666666668,0,0,0.010416666666666668,11.750000000000002,0)" xlink:href="#bo"/><use transform="matrix(0.010416666666666668,0,0,0.010416666666666668,23.052083333333336,0)" xlink:href="#bn"/><use transform="matrix(0.010416666666666668,0,0,0.010416666666666668,30.270833333333336,0)" xlink:href="#bM"/></g><g id="aj"><use transform="matrix(0.010416666666666668,0,0,0.010416666666666668,0,0)" xlink:href="#bn"/><use transform="matrix(0.010416666666666668,0,0,0.010416666666666668,7.020833333333334,0)" xlink:href="#bo"/><use transform="matrix(0.010416666666666668,0,0,0.010416666666666668,18.322916666666668,0)" xlink:href="#bK"/><use transform="matrix(0.010416666666666668,0,0,0.010416666666666668,30.29166666666667,0)" xlink:href="#bo"/><use transform="matrix(0.010416666666666668,0,0,0.010416666666666668,41.59375000000001,0)" xlink:href="#bB"/><use transform="matrix(0.010416666666666668,0,0,0.010416666666666668,53.19791666666667,0)" xlink:href="#bw"/><use transform="matrix(0.010416666666666668,0,0,0.010416666666666668,60.16666666666667,0)" xlink:href="#bo"/><use transform="matrix(0.010416666666666668,0,0,0.010416666666666668,71.46875,0)" xlink:href="#bL"/><use transform="matrix(0.010416666666666668,0,0,0.010416666666666668,83.5,0)" xlink:href="#bC"/><use transform="matrix(0.010416666666666668,0,0,0.010416666666666668,88.67708333333333,0)" xlink:href="#bv"/><use transform="matrix(0.010416666666666668,0,0,0.010416666666666668,98.77083333333333,0)" xlink:href="#bM"/></g><g id="ak"><use transform="matrix(0.010416666666666668,0,0,0.010416666666666668,0,0)" xlink:href="#bu"/><use transform="matrix(0.010416666666666668,0,0,0.010416666666666668,18.697916666666668,0)" xlink:href="#bB"/><use transform="matrix(0.010416666666666668,0,0,0.010416666666666668,30.302083333333336,0)" xlink:href="#bE"/><use transform="matrix(0.010416666666666668,0,0,0.010416666666666668,40.90625000000001,0)" xlink:href="#bo"/><use transform="matrix(0.010416666666666668,0,0,0.010416666666666668,52.208333333333336,0)" xlink:href="#bq"/><use transform="matrix(0.010416666666666668,0,0,0.010416666666666668,63.20833333333334,0)" xlink:href="#bM"/></g><g id="al"><use transform="matrix(0.010416666666666668,0,0,0.010416666666666668,0,0)" xlink:href="#bu"/><use transform="matrix(0.010416666666666668,0,0,0.010416666666666668,18.697916666666668,0)" xlink:href="#bo"/><use transform="matrix(0.010416666666666668,0,0,0.010416666666666668,30,0)" xlink:href="#bM"/></g><g id="am"><use transform="matrix(0.010416666666666668,0,0,0.010416666666666668,0,0)" xlink:href="#bl"/><use transform="matrix(0.010416666666666668,0,0,0.010416666666666668,7.156250000000001,0)" xlink:href="#bo"/><use transform="matrix(0.010416666666666668,0,0,0.010416666666666668,18.458333333333336,0)" xlink:href="#bo"/><use transform="matrix(0.010416666666666668,0,0,0.010416666666666668,29.76041666666667,0)" xlink:href="#bC"/><use transform="matrix(0.010416666666666668,0,0,0.010416666666666668,34.93750000000001,0)" xlink:href="#bM"/></g><g id="an"><use transform="matrix(0.010416666666666668,0,0,0.010416666666666668,0,0)" xlink:href="#bp"/><use transform="matrix(0.010416666666666668,0,0,0.010416666666666668,11.760416666666668,0)" xlink:href="#bq"/><use transform="matrix(0.010416666666666668,0,0,0.010416666666666668,22.760416666666668,0)" xlink:href="#bo"/><use transform="matrix(0.010416666666666668,0,0,0.010416666666666668,34.06250000000001,0)" xlink:href="#bL"/><use transform="matrix(0.010416666666666668,0,0,0.010416666666666668,46.09375000000001,0)" xlink:href="#bM"/></g><use transform="matrix(0.010416666666666668,0,0,0.010416666666666668,0,0)" xlink:href="#bP" id="ao"/><path fill="#fff" d="M973-380H363L226 0H28l556-1456h168L1309 0h-197zM421-538h495l-248-681" id="bQ"/><path fill="#fff" d="M1175-1298H707V0H516v-1298H49v-158h1126v158" id="bR"/><g id="ap"><use transform="matrix(0.010416666666666668,0,0,0.010416666666666668,0,0)" xlink:href="#bQ"/><use transform="matrix(0.010416666666666668,0,0,0.010416666666666668,13.916666666666668,0)" xlink:href="#bb"/><use transform="matrix(0.010416666666666668,0,0,0.010416666666666668,19.416666666666668,0)" xlink:href="#bR"/><use transform="matrix(0.010416666666666668,0,0,0.010416666666666668,31.32291666666667,0)" xlink:href="#bQ"/></g><g id="aq"><use transform="matrix(0.010416666666666668,0,0,0.010416666666666668,0,0)" xlink:href="#be"/><use transform="matrix(0.010416666666666668,0,0,0.010416666666666668,7.406250000000001,0)" xlink:href="#aL"/><use transform="matrix(0.010416666666666668,0,0,0.010416666666666668,19.572916666666668,0)" xlink:href="#bg"/></g><g id="ar"><use transform="matrix(0.010416666666666668,0,0,0.010416666666666668,0,0)" xlink:href="#bg"/><use transform="matrix(0.010416666666666668,0,0,0.010416666666666668,7.020833333333334,0)" xlink:href="#aW"/><use transform="matrix(0.010416666666666668,0,0,0.010416666666666668,18.322916666666668,0)" xlink:href="#be"/><use transform="matrix(0.010416666666666668,0,0,0.010416666666666668,25.729166666666668,0)" xlink:href="#bd"/><use transform="matrix(0.010416666666666668,0,0,0.010416666666666668,37.489583333333336,0)" xlink:href="#aT"/><use transform="matrix(0.010416666666666668,0,0,0.010416666666666668,48.489583333333336,0)" xlink:href="#aP"/><use transform="matrix(0.010416666666666668,0,0,0.010416666666666668,53.66666666666667,0)" xlink:href="#aO"/><use transform="matrix(0.010416666666666668,0,0,0.010416666666666668,65.4375,0)" xlink:href="#aQ"/></g><g id="as"><use transform="matrix(0.010416666666666668,0,0,0.010416666666666668,0,0)" xlink:href="#bh"/><use transform="matrix(0.010416666666666668,0,0,0.010416666666666668,18.697916666666668,0)" xlink:href="#aS"/></g><g id="at"><use transform="matrix(0.010416666666666668,0,0,0.010416666666666668,0,0)" xlink:href="#aT"/><use transform="matrix(0.010416666666666668,0,0,0.010416666666666668,11.000000000000002,0)" xlink:href="#aP"/><use transform="matrix(0.010416666666666668,0,0,0.010416666666666668,16.177083333333336,0)" xlink:href="#aT"/><use transform="matrix(0.010416666666666668,0,0,0.010416666666666668,27.177083333333336,0)" xlink:href="#aK"/><use transform="matrix(0.010416666666666668,0,0,0.010416666666666668,34.145833333333336,0)" xlink:href="#aW"/><use transform="matrix(0.010416666666666668,0,0,0.010416666666666668,45.44791666666667,0)" xlink:href="#bg"/></g><g id="au"><use transform="matrix(0.010416666666666668,0,0,0.010416666666666668,0,0)" xlink:href="#bh"/><use transform="matrix(0.010416666666666668,0,0,0.010416666666666668,18.697916666666668,0)" xlink:href="#aL"/><use transform="matrix(0.010416666666666668,0,0,0.010416666666666668,30.864583333333336,0)" xlink:href="#aO"/><use transform="matrix(0.010416666666666668,0,0,0.010416666666666668,42.63541666666667,0)" xlink:href="#aW"/><use transform="matrix(0.010416666666666668,0,0,0.010416666666666668,53.80208333333334,0)" xlink:href="#aS"/></g><g id="av"><use transform="matrix(0.010416666666666668,0,0,0.010416666666666668,0,0)" xlink:href="#aY"/><use transform="matrix(0.010416666666666668,0,0,0.010416666666666668,12.656250000000002,0)" xlink:href="#aV"/><use transform="matrix(0.010416666666666668,0,0,0.010416666666666668,24.406250000000004,0)" xlink:href="#aW"/><use transform="matrix(0.010416666666666668,0,0,0.010416666666666668,35.56250000000001,0)" xlink:href="#aZ"/><use transform="matrix(0.010416666666666668,0,0,0.010416666666666668,38.44791666666667,0)" xlink:href="#aT"/></g><g id="aw"><use transform="matrix(0.010416666666666668,0,0,0.010416666666666668,0,0)" xlink:href="#aN"/><use transform="matrix(0.010416666666666668,0,0,0.010416666666666668,11.604166666666668,0)" xlink:href="#aR"/><use transform="matrix(0.010416666666666668,0,0,0.010416666666666668,16.78125,0)" xlink:href="#aM"/><use transform="matrix(0.010416666666666668,0,0,0.010416666666666668,32.8125,0)" xlink:href="#aN"/><use transform="matrix(0.010416666666666668,0,0,0.010416666666666668,44.26041666666667,0)" xlink:href="#aS"/><use transform="matrix(0.010416666666666668,0,0,0.010416666666666668,54.35416666666667,0)" xlink:href="#aT"/></g><g id="ax"><use transform="matrix(0.010416666666666668,0,0,0.010416666666666668,0,0)" xlink:href="#aN"/><use transform="matrix(0.010416666666666668,0,0,0.010416666666666668,11.604166666666668,0)" xlink:href="#aT"/><use transform="matrix(0.010416666666666668,0,0,0.010416666666666668,22.604166666666668,0)" xlink:href="#bf"/><use transform="matrix(0.010416666666666668,0,0,0.010416666666666668,33.41666666666667,0)" xlink:href="#aP"/><use transform="matrix(0.010416666666666668,0,0,0.010416666666666668,38.59375000000001,0)" xlink:href="#aO"/><use transform="matrix(0.010416666666666668,0,0,0.010416666666666668,50.364583333333336,0)" xlink:href="#aQ"/></g><g id="ay"><use transform="matrix(0.010416666666666668,0,0,0.010416666666666668,0,0)" xlink:href="#ba"/><use transform="matrix(0.010416666666666668,0,0,0.010416666666666668,11.968750000000002,0)" xlink:href="#bd"/><use transform="matrix(0.010416666666666668,0,0,0.010416666666666668,23.729166666666668,0)" xlink:href="#aK"/></g><use transform="matrix(0.010416666666666668,0,0,0.010416666666666668,0,0)" xlink:href="#bb" id="az"/><g id="aA"><use transform="matrix(0.010416666666666668,0,0,0.010416666666666668,0,0)" xlink:href="#aV"/><use transform="matrix(0.010416666666666668,0,0,0.010416666666666668,11.750000000000002,0)" xlink:href="#aN"/><use transform="matrix(0.010416666666666668,0,0,0.010416666666666668,23.197916666666668,0)" xlink:href="#bc"/><use transform="matrix(0.010416666666666668,0,0,0.010416666666666668,33.395833333333336,0)" xlink:href="#aW"/></g><g id="aB"><use transform="matrix(0.010416666666666668,0,0,0.010416666666666668,0,0)" xlink:href="#aL"/><use transform="matrix(0.010416666666666668,0,0,0.010416666666666668,12.166666666666668,0)" xlink:href="#aM"/><use transform="matrix(0.010416666666666668,0,0,0.010416666666666668,28.19791666666667,0)" xlink:href="#aO"/></g><g id="aC"><use transform="matrix(0.010416666666666668,0,0,0.010416666666666668,0,0)" xlink:href="#ba"/><use transform="matrix(0.010416666666666668,0,0,0.010416666666666668,11.968750000000002,0)" xlink:href="#aP"/><use transform="matrix(0.010416666666666668,0,0,0.010416666666666668,17.145833333333336,0)" xlink:href="#aR"/><use transform="matrix(0.010416666666666668,0,0,0.010416666666666668,22.322916666666668,0)" xlink:href="#aR"/><use transform="matrix(0.010416666666666668,0,0,0.010416666666666668,27.500000000000007,0)" xlink:href="#aT"/></g><path fill="#fff" d="M730-137c145 0 253-29 323-105v-327H716v-156h528v534C1148-51 964 20 729 20c-394 0-598-279-607-678v-127c-5-410 194-690 585-691 310-1 499 171 537 447h-192c-36-193-151-289-344-289-285 0-393 220-393 528v119c-5 296 140 534 415 534" id="bS"/><g id="aD"><use transform="matrix(0.010416666666666668,0,0,0.010416666666666668,0,0)" xlink:href="#bS"/><use transform="matrix(0.010416666666666668,0,0,0.010416666666666668,14.531250000000002,0)" xlink:href="#aP"/><use transform="matrix(0.010416666666666668,0,0,0.010416666666666668,19.708333333333336,0)" xlink:href="#bc"/><use transform="matrix(0.010416666666666668,0,0,0.010416666666666668,30.04166666666667,0)" xlink:href="#aP"/><use transform="matrix(0.010416666666666668,0,0,0.010416666666666668,35.21875000000001,0)" xlink:href="#aO"/><use transform="matrix(0.010416666666666668,0,0,0.010416666666666668,46.989583333333336,0)" xlink:href="#aQ"/></g><g id="aE"><use transform="matrix(0.010416666666666668,0,0,0.010416666666666668,0,0)" xlink:href="#aV"/><use transform="matrix(0.010416666666666668,0,0,0.010416666666666668,11.750000000000002,0)" xlink:href="#aW"/><use transform="matrix(0.010416666666666668,0,0,0.010416666666666668,23.052083333333336,0)" xlink:href="#bg"/></g><g id="aF"><use transform="matrix(0.010416666666666668,0,0,0.010416666666666668,0,0)" xlink:href="#bg"/><use transform="matrix(0.010416666666666668,0,0,0.010416666666666668,7.020833333333334,0)" xlink:href="#aW"/><use transform="matrix(0.010416666666666668,0,0,0.010416666666666668,18.322916666666668,0)" xlink:href="#aX"/><use transform="matrix(0.010416666666666668,0,0,0.010416666666666668,30.29166666666667,0)" xlink:href="#aW"/><use transform="matrix(0.010416666666666668,0,0,0.010416666666666668,41.59375000000001,0)" xlink:href="#aN"/><use transform="matrix(0.010416666666666668,0,0,0.010416666666666668,53.19791666666667,0)" xlink:href="#aK"/><use transform="matrix(0.010416666666666668,0,0,0.010416666666666668,60.16666666666667,0)" xlink:href="#aW"/><use transform="matrix(0.010416666666666668,0,0,0.010416666666666668,71.46875,0)" xlink:href="#aU"/><use transform="matrix(0.010416666666666668,0,0,0.010416666666666668,83.5,0)" xlink:href="#aR"/><use transform="matrix(0.010416666666666668,0,0,0.010416666666666668,88.67708333333333,0)" xlink:href="#aS"/></g><g id="aG"><use transform="matrix(0.010416666666666668,0,0,0.010416666666666668,0,0)" xlink:href="#bh"/><use transform="matrix(0.010416666666666668,0,0,0.010416666666666668,18.697916666666668,0)" xlink:href="#aN"/><use transform="matrix(0.010416666666666668,0,0,0.010416666666666668,30.302083333333336,0)" xlink:href="#bf"/><use transform="matrix(0.010416666666666668,0,0,0.010416666666666668,40.90625000000001,0)" xlink:href="#aW"/><use transform="matrix(0.010416666666666668,0,0,0.010416666666666668,52.208333333333336,0)" xlink:href="#aT"/></g><g id="aH"><use transform="matrix(0.010416666666666668,0,0,0.010416666666666668,0,0)" xlink:href="#bh"/><use transform="matrix(0.010416666666666668,0,0,0.010416666666666668,18.697916666666668,0)" xlink:href="#aW"/></g><g id="aI"><use transform="matrix(0.010416666666666668,0,0,0.010416666666666668,0,0)" xlink:href="#be"/><use transform="matrix(0.010416666666666668,0,0,0.010416666666666668,7.156250000000001,0)" xlink:href="#aW"/><use transform="matrix(0.010416666666666668,0,0,0.010416666666666668,18.458333333333336,0)" xlink:href="#aW"/><use transform="matrix(0.010416666666666668,0,0,0.010416666666666668,29.76041666666667,0)" xlink:href="#aR"/></g><g id="aJ"><use transform="matrix(0.010416666666666668,0,0,0.010416666666666668,0,0)" xlink:href="#bd"/><use transform="matrix(0.010416666666666668,0,0,0.010416666666666668,11.760416666666668,0)" xlink:href="#aT"/><use transform="matrix(0.010416666666666668,0,0,0.010416666666666668,22.760416666666668,0)" xlink:href="#aW"/><use transform="matrix(0.010416666666666668,0,0,0.010416666666666668,34.06250000000001,0)" xlink:href="#aU"/></g></defs></g></svg>