<svg xmlns="http://www.w3.org/2000/svg" xmlns:xlink="http://www.w3.org/1999/xlink" xmlns:lucid="lucid" width="1095" height="425"><g transform="translate(-84 -228.00000000000003)" lucid:page-tab-id="0_0"><path d="M331 253h780v380H331z" fill="none"/><use xlink:href="#a" transform="matrix(1,0,0,1,331,252.99999999999997) translate(0 201.15972222222223)"/><use xlink:href="#b" transform="matrix(1,0,0,1,331,252.99999999999997) translate(85.34722222222219 201.15972222222223)"/><use xlink:href="#c" transform="matrix(1,0,0,1,331,252.99999999999997) translate(213.3680555555555 201.15972222222223)"/><use xlink:href="#d" transform="matrix(1,0,0,1,331,252.99999999999997) translate(277.3784722222221 201.15972222222223)"/><path d="M415 468h580v136.67H415z" fill="#fff" fill-opacity="0"/><use xlink:href="#e" transform="matrix(1,0,0,1,419,472) translate(0 28.43749999999999)"/><use xlink:href="#f" transform="matrix(1,0,0,1,419,472) translate(64.01041666666664 28.43749999999999)"/><use xlink:href="#g" transform="matrix(1,0,0,1,419,472) translate(106.68402777777774 28.43749999999999)"/><use xlink:href="#h" transform="matrix(1,0,0,1,419,472) translate(0 74.99305555555553)"/><path d="M499.17 398.5c0 .83-.68 1.5-1.5 1.5-.83 0-1.5-.67-1.5-1.5s.67-1.5 1.5-1.5c.82 0 1.5.67 1.5 1.5zm0-5.9c0 .84-.68 1.5-1.5 1.5-.83 0-1.5-.66-1.5-1.5 0-.82.67-1.5 1.5-1.5.82 0 1.5.68 1.5 1.5zm0-5.9c0 .84-.68 1.5-1.5 1.5-.83 0-1.5-.66-1.5-1.5 0-.8.67-1.5 1.5-1.5.82 0 1.5.7 1.5 1.5zm0-5.88c0 .83-.68 1.5-1.5 1.5-.83 0-1.5-.67-1.5-1.5s.67-1.5 1.5-1.5c.82 0 1.5.67 1.5 1.5zm0-5.9c0 .84-.68 1.5-1.5 1.5-.83 0-1.5-.66-1.5-1.5 0-.82.67-1.5 1.5-1.5.82 0 1.5.68 1.5 1.5zm0-5.88c0 .82-.68 1.5-1.5 1.5-.83 0-1.5-.68-1.5-1.5 0-.83.67-1.5 1.5-1.5.82 0 1.5.67 1.5 1.5zm0-5.9c0 .83-.68 1.5-1.5 1.5-.83 0-1.5-.67-1.5-1.5s.67-1.5 1.5-1.5c.82 0 1.5.67 1.5 1.5zm0-5.9c0 .84-.68 1.5-1.5 1.5-.83 0-1.5-.66-1.5-1.5 0-.82.67-1.5 1.5-1.5.82 0 1.5.68 1.5 1.5zm0-5.88c0 .83-.68 1.5-1.5 1.5-.83 0-1.5-.67-1.5-1.5s.67-1.5 1.5-1.5c.82 0 1.5.67 1.5 1.5zm0-5.9c0 .83-.68 1.5-1.5 1.5-.83 0-1.5-.67-1.5-1.5 0-.82.67-1.5 1.5-1.5.82 0 1.5.68 1.5 1.5zm0-5.9c0 .84-.68 1.5-1.5 1.5-.83 0-1.5-.66-1.5-1.5 0-.82.67-1.5 1.5-1.5.82 0 1.5.68 1.5 1.5zm0-5.88c0 .83-.68 1.5-1.5 1.5-.83 0-1.5-.67-1.5-1.5s.67-1.5 1.5-1.5c.82 0 1.5.67 1.5 1.5zm0-5.9c0 .83-.68 1.5-1.5 1.5-.83 0-1.5-.67-1.5-1.5 0-.82.67-1.5 1.5-1.5.82 0 1.5.68 1.5 1.5zm0-5.9c0 .84-.68 1.5-1.5 1.5-.83 0-1.5-.66-1.5-1.5 0-.82.67-1.5 1.5-1.5.82 0 1.5.68 1.5 1.5zm0-5.88c0 .83-.68 1.5-1.5 1.5-.83 0-1.5-.67-1.5-1.5s.67-1.5 1.5-1.5c.82 0 1.5.67 1.5 1.5zm-1.76-4.24c0 .83-.66 1.5-1.5 1.5-.82 0-1.5-.67-1.5-1.5s.68-1.5 1.5-1.5c.84 0 1.5.67 1.5 1.5zm-4.23-1.76c0 .83-.68 1.5-1.5 1.5-.83 0-1.5-.67-1.5-1.5s.67-1.5 1.5-1.5c.82 0 1.5.67 1.5 1.5zm-6.26 0c0 .83-.66 1.5-1.5 1.5-.82 0-1.5-.67-1.5-1.5s.68-1.5 1.5-1.5c.84 0 1.5.67 1.5 1.5zm-6.25 0c0 .83-.67 1.5-1.5 1.5-.82 0-1.5-.67-1.5-1.5s.68-1.5 1.5-1.5c.83 0 1.5.67 1.5 1.5zm-6.25 0c0 .83-.67 1.5-1.5 1.5s-1.5-.67-1.5-1.5.67-1.5 1.5-1.5 1.5.67 1.5 1.5zm-6.26 0c0 .83-.67 1.5-1.5 1.5-.82 0-1.5-.67-1.5-1.5s.68-1.5 1.5-1.5c.83 0 1.5.67 1.5 1.5zm-6.25 0c0 .83-.68 1.5-1.5 1.5-.84 0-1.5-.67-1.5-1.5s.66-1.5 1.5-1.5c.82 0 1.5.67 1.5 1.5zm-6.27 0c0 .83-.67 1.5-1.5 1.5s-1.5-.67-1.5-1.5.67-1.5 1.5-1.5 1.5.67 1.5 1.5zm-6.25 0c0 .83-.68 1.5-1.5 1.5-.83 0-1.5-.67-1.5-1.5s.67-1.5 1.5-1.5c.82 0 1.5.67 1.5 1.5z" fill="#fc9432"/><path d="M497.67 398.46V400" stroke="#fc9432" stroke-width="3" fill="none"/><path d="M425.85 310l14.27-4.63v9.26z" stroke="#fc9432" stroke-width="3" fill="#fc9432"/><path d="M220 255a6 6 0 0 1 6-6h189a6 6 0 0 1 6 6v110a6 6 0 0 1-6 6H226a6 6 0 0 1-6-6z" stroke="#000" stroke-opacity="0" fill="#fff" fill-opacity="0"/><use xlink:href="#i" transform="matrix(1,0,0,1,225,254.00000000000003) translate(0 31.88888888888888)"/><use xlink:href="#j" transform="matrix(1,0,0,1,225,254.00000000000003) translate(67.32098765432096 31.88888888888888)"/><use xlink:href="#k" transform="matrix(1,0,0,1,225,254.00000000000003) translate(0 63.88888888888886)"/><use xlink:href="#l" transform="matrix(1,0,0,1,225,254.00000000000003) translate(67.83333333333327 63.88888888888886)"/><use xlink:href="#m" transform="matrix(1,0,0,1,225,254.00000000000003) translate(120.6604938271604 63.88888888888886)"/><use xlink:href="#n" transform="matrix(1,0,0,1,225,254.00000000000003) translate(0 93.22222222222217)"/><path d="M769.5 398.5c0 .83-.67 1.5-1.5 1.5s-1.5-.67-1.5-1.5.67-1.5 1.5-1.5 1.5.67 1.5 1.5zm0-5.83c0 .82-.67 1.5-1.5 1.5s-1.5-.68-1.5-1.5c0-.83.67-1.5 1.5-1.5s1.5.67 1.5 1.5zm0-5.84c0 .83-.67 1.5-1.5 1.5s-1.5-.67-1.5-1.5c0-.82.67-1.5 1.5-1.5s1.5.68 1.5 1.5zm0-5.83c0 .83-.67 1.5-1.5 1.5s-1.5-.67-1.5-1.5.67-1.5 1.5-1.5 1.5.67 1.5 1.5zm0-5.83c0 .82-.67 1.5-1.5 1.5s-1.5-.68-1.5-1.5c0-.83.67-1.5 1.5-1.5s1.5.67 1.5 1.5zm0-5.84c0 .83-.67 1.5-1.5 1.5s-1.5-.67-1.5-1.5c0-.82.67-1.5 1.5-1.5s1.5.68 1.5 1.5zm0-5.83c0 .83-.67 1.5-1.5 1.5s-1.5-.67-1.5-1.5.67-1.5 1.5-1.5 1.5.67 1.5 1.5zm0-5.83c0 .82-.67 1.5-1.5 1.5s-1.5-.68-1.5-1.5c0-.83.67-1.5 1.5-1.5s1.5.67 1.5 1.5zm0-5.84c0 .83-.67 1.5-1.5 1.5s-1.5-.67-1.5-1.5c0-.82.67-1.5 1.5-1.5s1.5.68 1.5 1.5zm0-5.83c0 .83-.67 1.5-1.5 1.5s-1.5-.67-1.5-1.5.67-1.5 1.5-1.5 1.5.67 1.5 1.5zm0-5.83c0 .82-.67 1.5-1.5 1.5s-1.5-.68-1.5-1.5c0-.83.67-1.5 1.5-1.5s1.5.67 1.5 1.5zm0-5.84c0 .83-.67 1.5-1.5 1.5s-1.5-.67-1.5-1.5c0-.82.67-1.5 1.5-1.5s1.5.68 1.5 1.5zm0-5.83c0 .83-.67 1.5-1.5 1.5s-1.5-.67-1.5-1.5.67-1.5 1.5-1.5 1.5.67 1.5 1.5zm0-5.83c0 .82-.67 1.5-1.5 1.5s-1.5-.68-1.5-1.5c0-.83.67-1.5 1.5-1.5s1.5.67 1.5 1.5zm0-5.84c0 .83-.67 1.5-1.5 1.5s-1.5-.67-1.5-1.5c0-.82.67-1.5 1.5-1.5s1.5.68 1.5 1.5zm0-5.83c0 .83-.67 1.5-1.5 1.5s-1.5-.67-1.5-1.5.67-1.5 1.5-1.5 1.5.67 1.5 1.5zm1.76-4.24c0 .83-.67 1.5-1.5 1.5s-1.5-.67-1.5-1.5.67-1.5 1.5-1.5 1.5.67 1.5 1.5zm4.24-1.76c0 .83-.67 1.5-1.5 1.5s-1.5-.67-1.5-1.5.67-1.5 1.5-1.5 1.5.67 1.5 1.5zm5.94 0c0 .83-.67 1.5-1.5 1.5s-1.5-.67-1.5-1.5.67-1.5 1.5-1.5 1.5.67 1.5 1.5zm5.95 0c0 .83-.68 1.5-1.5 1.5-.84 0-1.5-.67-1.5-1.5s.66-1.5 1.5-1.5c.82 0 1.5.67 1.5 1.5zm5.93 0c0 .83-.67 1.5-1.5 1.5s-1.5-.67-1.5-1.5.67-1.5 1.5-1.5 1.5.67 1.5 1.5zm5.94 0c0 .83-.67 1.5-1.5 1.5-.82 0-1.5-.67-1.5-1.5s.68-1.5 1.5-1.5c.83 0 1.5.67 1.5 1.5zm5.95 0c0 .83-.67 1.5-1.5 1.5s-1.5-.67-1.5-1.5.67-1.5 1.5-1.5 1.5.67 1.5 1.5zm5.94 0c0 .83-.67 1.5-1.5 1.5s-1.5-.67-1.5-1.5.67-1.5 1.5-1.5 1.5.67 1.5 1.5zm5.95 0c0 .83-.67 1.5-1.5 1.5-.82 0-1.5-.67-1.5-1.5s.68-1.5 1.5-1.5c.83 0 1.5.67 1.5 1.5zm5.95 0c0 .83-.67 1.5-1.5 1.5s-1.5-.67-1.5-1.5.67-1.5 1.5-1.5 1.5.67 1.5 1.5zm5.94 0c0 .83-.68 1.5-1.5 1.5-.84 0-1.5-.67-1.5-1.5s.66-1.5 1.5-1.5c.82 0 1.5.67 1.5 1.5zm5.94 0c0 .83-.68 1.5-1.5 1.5-.83 0-1.5-.67-1.5-1.5s.67-1.5 1.5-1.5c.82 0 1.5.67 1.5 1.5z" fill="#1071e5"/><path d="M768 398.46V400" stroke="#1071e5" stroke-width="3" fill="none"/><path d="M855.15 305l-14.27 4.63v-9.26z" stroke="#1071e5" stroke-width="3" fill="#1071e5"/><path d="M860 254a6 6 0 0 1 6-6h169a6 6 0 0 1 6 6v102a6 6 0 0 1-6 6H866a6 6 0 0 1-6-6z" stroke="#000" stroke-opacity="0" fill="#fff" fill-opacity="0"/><use xlink:href="#o" transform="matrix(1,0,0,1,865,253.00000000000003) translate(15 45.8611111111111)"/><use xlink:href="#p" transform="matrix(1,0,0,1,865,253.00000000000003) translate(15 75.19444444444441)"/><use xlink:href="#q" transform="matrix(1,0,0,1,865,253.00000000000003) translate(71.72839506172834 75.19444444444441)"/><use xlink:href="#r" transform="matrix(1,0,0,1,865,253.00000000000003) translate(90.24691358024683 75.19444444444441)"/><path d="M840 481a6 6 0 0 1 6-6h229a6 6 0 0 1 6 6v73a6 6 0 0 1-6 6H846a6 6 0 0 1-6-6z" fill="none"/><path d="M840 560c5.52 0 10-4.48 10-10v-22.5c0-5.52 4.48-10 10-10-5.52 0-10-4.48-10-10V485c0-5.52-4.48-10-10-10" stroke="#3a414a" fill="none"/><g><use xlink:href="#s" transform="matrix(1,0,0,1,875,479.9999999999999) translate(0 28.611111111111114)"/><use xlink:href="#t" transform="matrix(1,0,0,1,875,479.9999999999999) translate(54.32098765432099 28.611111111111114)"/><use xlink:href="#u" transform="matrix(1,0,0,1,875,479.9999999999999) translate(94.93827160493828 28.611111111111114)"/><use xlink:href="#v" transform="matrix(1,0,0,1,875,479.9999999999999) translate(143.08641975308643 28.611111111111114)"/><use xlink:href="#w" transform="matrix(1,0,0,1,875,479.9999999999999) translate(0 55.27777777777778)"/><use xlink:href="#x" transform="matrix(1,0,0,1,875,479.9999999999999) translate(32.03703703703704 55.27777777777778)"/><use xlink:href="#y" transform="matrix(1,0,0,1,875,479.9999999999999) translate(88.76543209876544 55.27777777777778)"/></g><path d="M791 438.67c0 .82-.67 1.5-1.5 1.5s-1.5-.68-1.5-1.5c0-.83.67-1.5 1.5-1.5s1.5.67 1.5 1.5zm5.88 0c0 .82-.68 1.5-1.5 1.5-.83 0-1.5-.68-1.5-1.5 0-.83.67-1.5 1.5-1.5.82 0 1.5.67 1.5 1.5zm5.87 0c0 .82-.67 1.5-1.5 1.5s-1.5-.68-1.5-1.5c0-.83.67-1.5 1.5-1.5s1.5.67 1.5 1.5zm5.88 0c0 .82-.68 1.5-1.5 1.5-.83 0-1.5-.68-1.5-1.5 0-.83.67-1.5 1.5-1.5.82 0 1.5.67 1.5 1.5zm5.87 0c0 .82-.67 1.5-1.5 1.5s-1.5-.68-1.5-1.5c0-.83.67-1.5 1.5-1.5s1.5.67 1.5 1.5zm5.88 0c0 .82-.68 1.5-1.5 1.5-.83 0-1.5-.68-1.5-1.5 0-.83.67-1.5 1.5-1.5.82 0 1.5.67 1.5 1.5zm5.87 0c0 .82-.67 1.5-1.5 1.5s-1.5-.68-1.5-1.5c0-.83.67-1.5 1.5-1.5s1.5.67 1.5 1.5zm5.88 0c0 .82-.68 1.5-1.5 1.5-.83 0-1.5-.68-1.5-1.5 0-.83.67-1.5 1.5-1.5.82 0 1.5.67 1.5 1.5zm5.87 0c0 .82-.67 1.5-1.5 1.5s-1.5-.68-1.5-1.5c0-.83.67-1.5 1.5-1.5s1.5.67 1.5 1.5zm5.88 0c0 .82-.68 1.5-1.5 1.5-.83 0-1.5-.68-1.5-1.5 0-.83.67-1.5 1.5-1.5.82 0 1.5.67 1.5 1.5zm5.87 0c0 .82-.67 1.5-1.5 1.5s-1.5-.68-1.5-1.5c0-.83.67-1.5 1.5-1.5s1.5.67 1.5 1.5zm5.88 0c0 .82-.68 1.5-1.5 1.5-.83 0-1.5-.68-1.5-1.5 0-.83.67-1.5 1.5-1.5.82 0 1.5.67 1.5 1.5zm5.87 0c0 .82-.67 1.5-1.5 1.5s-1.5-.68-1.5-1.5c0-.83.67-1.5 1.5-1.5s1.5.67 1.5 1.5zm4.24-1.76c0 .84-.67 1.5-1.5 1.5s-1.5-.66-1.5-1.5c0-.82.67-1.5 1.5-1.5s1.5.68 1.5 1.5zm1.76-4.23c0 .82-.67 1.5-1.5 1.5s-1.5-.68-1.5-1.5c0-.83.67-1.5 1.5-1.5s1.5.67 1.5 1.5zm0-6c0 .82-.67 1.5-1.5 1.5s-1.5-.68-1.5-1.5c0-.83.67-1.5 1.5-1.5s1.5.67 1.5 1.5zm0-6c0 .82-.67 1.5-1.5 1.5s-1.5-.68-1.5-1.5c0-.83.67-1.5 1.5-1.5s1.5.67 1.5 1.5zm0-6c0 .82-.67 1.5-1.5 1.5s-1.5-.68-1.5-1.5c0-.83.67-1.5 1.5-1.5s1.5.67 1.5 1.5zm0-6c0 .82-.67 1.5-1.5 1.5s-1.5-.68-1.5-1.5c0-.83.67-1.5 1.5-1.5s1.5.67 1.5 1.5zm1.76-4.25c0 .83-.67 1.5-1.5 1.5s-1.5-.67-1.5-1.5c0-.82.67-1.5 1.5-1.5s1.5.68 1.5 1.5zm4.24-1.75c0 .82-.67 1.5-1.5 1.5s-1.5-.68-1.5-1.5c0-.83.67-1.5 1.5-1.5s1.5.67 1.5 1.5zm5.7 0c0 .82-.66 1.5-1.5 1.5-.82 0-1.5-.68-1.5-1.5 0-.83.68-1.5 1.5-1.5.84 0 1.5.67 1.5 1.5zm5.72 0c0 .82-.67 1.5-1.5 1.5s-1.5-.68-1.5-1.5c0-.83.67-1.5 1.5-1.5s1.5.67 1.5 1.5zm5.7 0c0 .82-.66 1.5-1.5 1.5-.82 0-1.5-.68-1.5-1.5 0-.83.68-1.5 1.5-1.5.84 0 1.5.67 1.5 1.5zm5.72 0c0 .82-.68 1.5-1.5 1.5-.83 0-1.5-.68-1.5-1.5 0-.83.67-1.5 1.5-1.5.82 0 1.5.67 1.5 1.5zm5.7 0c0 .82-.67 1.5-1.5 1.5-.82 0-1.5-.68-1.5-1.5 0-.83.68-1.5 1.5-1.5.83 0 1.5.67 1.5 1.5zm5.7 0c0 .82-.66 1.5-1.5 1.5-.82 0-1.5-.68-1.5-1.5 0-.83.68-1.5 1.5-1.5.84 0 1.5.67 1.5 1.5zm5.72 0c0 .82-.67 1.5-1.5 1.5s-1.5-.68-1.5-1.5c0-.83.67-1.5 1.5-1.5s1.5.67 1.5 1.5zm5.7 0c0 .82-.66 1.5-1.5 1.5-.82 0-1.5-.68-1.5-1.5 0-.83.68-1.5 1.5-1.5.84 0 1.5.67 1.5 1.5z" fill="#4c535d"/><path d="M789.54 438.67H788" stroke="#4c535d" stroke-width="3" fill="none"/><path d="M939.15 402.67l-14.27 4.63v-9.27z" stroke="#4c535d" stroke-width="3" fill="#4c535d"/><path d="M919 378a6 6 0 0 1 6-6h228a6 6 0 0 1 6 6v48a6 6 0 0 1-6 6H925a6 6 0 0 1-6-6z" stroke="#000" stroke-opacity="0" fill="#fff" fill-opacity="0"/><g><use xlink:href="#z" transform="matrix(1,0,0,1,924,377) translate(42.19135802469137 30.27777777777778)"/><use xlink:href="#A" transform="matrix(1,0,0,1,924,377) translate(91.57407407407408 30.27777777777778)"/><use xlink:href="#B" transform="matrix(1,0,0,1,924,377) translate(128.61111111111111 30.27777777777778)"/></g><path d="M104 481a6 6 0 0 1 6-6h224a6 6 0 0 1 6 6v68a6 6 0 0 1-6 6H110a6 6 0 0 1-6-6z" fill="none"/><path d="M340 555c-5.52 0-10-4.48-10-10v-20c0-5.52-4.48-10-10-10 5.52 0 10-4.48 10-10v-20c0-5.52 4.48-10 10-10" stroke="#3a414a" fill="none"/><g><use xlink:href="#C" transform="matrix(1,0,0,1,109,480) translate(90.14197530864197 25.22222222222222)"/><use xlink:href="#D" transform="matrix(1,0,0,1,109,480) translate(143.03703703703704 25.22222222222222)"/><use xlink:href="#E" transform="matrix(1,0,0,1,109,480) translate(8.728395061728406 54.55555555555556)"/><use xlink:href="#F" transform="matrix(1,0,0,1,109,480) translate(68.4135802469136 54.55555555555556)"/><use xlink:href="#G" transform="matrix(1,0,0,1,109,480) translate(102.36419753086422 54.55555555555556)"/></g><defs><path fill="#008a0e" d="M844-1321c-130 0-195 53-191 182v57h443v190H653V0H373v-892H117v-190h256v-83c5-247 162-348 422-349 120-1 232 13 327 28v184c-84-10-183-19-278-19" id="H"/><path fill="#008a0e" d="M616-1102c361 0 521 202 521 560 0 354-171 562-527 562C259 20 92-192 92-542c0-351 169-560 524-560zm-9 930c200-2 236-165 236-370 0-199-27-367-223-367-195 0-233 146-233 367 0 129 18 223 55 282s92 88 165 88" id="I"/><path fill="#008a0e" d="M875-1102c70 0 148 7 206 17v237c-110-17-267-37-359 15-123 69-192 207-192 395V0H250c-10-367 32-789-52-1082h271c19 69 36 149 46 228h4c52-151 151-250 356-248" id="J"/><g id="a"><use transform="matrix(0.017361111111111105,0,0,0.017361111111111105,0,0)" xlink:href="#H"/><use transform="matrix(0.017361111111111105,0,0,0.017361111111111105,21.336805555555546,0)" xlink:href="#I"/><use transform="matrix(0.017361111111111105,0,0,0.017361111111111105,42.67361111111109,0)" xlink:href="#J"/></g><path fill="#fc9432" d="M682 16c-209 0-323-80-324-285v-671H190v-142h170l58-282h120v282h432v142H538v652c2 114 60 155 182 155 106 0 209-16 297-34v137C921-4 806 16 682 16" id="K"/><path fill="#fc9432" d="M615-1102c343 0 484 203 482 560-1 347-147 562-488 562-336 0-475-219-479-562-4-349 156-560 485-560zm-8 989c240 0 301-180 301-429 0-245-55-427-290-427-236 0-299 181-299 427 0 243 61 429 288 429" id="L"/><path fill="#fc9432" d="M914 0L548-499l-132 98V0H236v-1484h180v927l475-525h211L663-617 1125 0H914" id="M"/><path fill="#fc9432" d="M617-1102c355 0 481 238 477 599H322c5 222 84 388 301 388 144 0 244-59 284-166l158 45C1002-72 854 20 623 20c-342 0-490-220-490-568 0-346 151-554 484-554zm291 461c-18-192-90-328-289-328-194 0-287 128-295 328h584" id="N"/><path fill="#fc9432" d="M706-1102c241 0 344 136 343 381V0H868v-695c1-168-57-273-220-268-190 6-283 138-283 336V0H185c-3-360 6-732-6-1082h170c4 54 7 126 8 185h3c63-121 164-204 346-205" id="O"/><g id="b"><use transform="matrix(0.017361111111111105,0,0,0.017361111111111105,0,0)" xlink:href="#K"/><use transform="matrix(0.017361111111111105,0,0,0.017361111111111105,21.336805555555546,0)" xlink:href="#L"/><use transform="matrix(0.017361111111111105,0,0,0.017361111111111105,42.67361111111109,0)" xlink:href="#M"/><use transform="matrix(0.017361111111111105,0,0,0.017361111111111105,64.01041666666664,0)" xlink:href="#N"/><use transform="matrix(0.017361111111111105,0,0,0.017361111111111105,85.34722222222219,0)" xlink:href="#O"/></g><path fill="#008a0e" d="M794-190h353V0H118v-190h395v-702H223v-190h571v892zM513-1277v-207h281v207H513" id="P"/><path fill="#008a0e" d="M768-1103c247 0 336 167 336 416V0H824v-619c-3-164-24-273-171-273-164 0-229 142-229 312V0H143c-4-359 9-736-8-1082h268c7 63 12 146 13 215h4c67-145 160-236 348-236" id="Q"/><g id="c"><use transform="matrix(0.017361111111111105,0,0,0.017361111111111105,0,0)" xlink:href="#P"/><use transform="matrix(0.017361111111111105,0,0,0.017361111111111105,21.336805555555546,0)" xlink:href="#Q"/></g><path fill="#1071e5" d="M682 16c-209 0-323-80-324-285v-671H190v-142h170l58-282h120v282h432v142H538v652c2 114 60 155 182 155 106 0 209-16 297-34v137C921-4 806 16 682 16" id="R"/><path fill="#1071e5" d="M615-1102c343 0 484 203 482 560-1 347-147 562-488 562-336 0-475-219-479-562-4-349 156-560 485-560zm-8 989c240 0 301-180 301-429 0-245-55-427-290-427-236 0-299 181-299 427 0 243 61 429 288 429" id="S"/><path fill="#1071e5" d="M914 0L548-499l-132 98V0H236v-1484h180v927l475-525h211L663-617 1125 0H914" id="T"/><path fill="#1071e5" d="M617-1102c355 0 481 238 477 599H322c5 222 84 388 301 388 144 0 244-59 284-166l158 45C1002-72 854 20 623 20c-342 0-490-220-490-568 0-346 151-554 484-554zm291 461c-18-192-90-328-289-328-194 0-287 128-295 328h584" id="U"/><path fill="#1071e5" d="M706-1102c241 0 344 136 343 381V0H868v-695c1-168-57-273-220-268-190 6-283 138-283 336V0H185c-3-360 6-732-6-1082h170c4 54 7 126 8 185h3c63-121 164-204 346-205" id="V"/><path fill="#1071e5" d="M873-819c-18-114-119-146-250-146-163 0-245 50-245 151 0 151 170 148 294 185 182 54 388 94 388 320 0 240-189 325-439 329-245 4-410-69-454-268l159-31c24 133 136 168 295 165 144-2 270-31 270-171 0-164-195-160-331-202-167-52-350-87-350-299 0-218 173-315 413-313 220 2 373 77 412 260" id="W"/><path fill="#3a414a" d="M496 0v-299h235V0H496zm0-783v-299h235v299H496" id="X"/><g id="d"><use transform="matrix(0.017361111111111105,0,0,0.017361111111111105,0,0)" xlink:href="#R"/><use transform="matrix(0.017361111111111105,0,0,0.017361111111111105,21.336805555555546,0)" xlink:href="#S"/><use transform="matrix(0.017361111111111105,0,0,0.017361111111111105,42.67361111111109,0)" xlink:href="#T"/><use transform="matrix(0.017361111111111105,0,0,0.017361111111111105,64.01041666666664,0)" xlink:href="#U"/><use transform="matrix(0.017361111111111105,0,0,0.017361111111111105,85.34722222222219,0)" xlink:href="#V"/><use transform="matrix(0.017361111111111105,0,0,0.017361111111111105,106.68402777777773,0)" xlink:href="#W"/><use transform="matrix(0.017361111111111105,0,0,0.017361111111111105,128.0208333333333,0)" xlink:href="#X"/></g><path fill="#3a414a" d="M528 20c-247 0-343-132-343-381v-721h180v686c-4 177 45 284 224 277 194-8 279-136 279-336v-627h181c3 360-6 732 6 1082H885c-4-54-7-126-8-185h-3C809-64 714 20 528 20" id="Y"/><path fill="#3a414a" d="M698-1104c312 3 392 244 392 558 0 315-82 566-392 566-169 0-277-65-331-184h-5c8 188 2 394 4 589H185V-858c0-76-1-156-6-224h175c6 52 9 120 10 178h4c58-122 150-202 330-200zm-49 991c225 0 255-203 255-433 0-225-32-419-253-419-236 0-285 192-285 441 0 237 53 411 283 411" id="Z"/><g id="e"><use transform="matrix(0.017361111111111105,0,0,0.017361111111111105,0,0)" xlink:href="#Y"/><use transform="matrix(0.017361111111111105,0,0,0.017361111111111105,21.336805555555546,0)" xlink:href="#Z"/></g><path fill="#3a414a" d="M116-856v-148h995v148H116zm0 512v-148h995v148H116" id="aa"/><use transform="matrix(0.017361111111111105,0,0,0.017361111111111105,0,0)" xlink:href="#aa" id="f"/><path fill="#008a0e" d="M496 0v-299h235V0H496" id="ab"/><path fill="#008a0e" d="M528 20c-247 0-343-132-343-381v-721h180v686c-4 177 45 284 224 277 194-8 279-136 279-336v-627h181c3 360-6 732 6 1082H885c-4-54-7-126-8-185h-3C809-64 714 20 528 20" id="ac"/><path fill="#008a0e" d="M698-1104c312 3 392 244 392 558 0 315-82 566-392 566-169 0-277-65-331-184h-5c8 188 2 394 4 589H185V-858c0-76-1-156-6-224h175c6 52 9 120 10 178h4c58-122 150-202 330-200zm-49 991c225 0 255-203 255-433 0-225-32-419-253-419-236 0-285 192-285 441 0 237 53 411 283 411" id="ad"/><path fill="#008a0e" d="M617-1102c355 0 481 238 477 599H322c5 222 84 388 301 388 144 0 244-59 284-166l158 45C1002-72 854 20 623 20c-342 0-490-220-490-568 0-346 151-554 484-554zm291 461c-18-192-90-328-289-328-194 0-287 128-295 328h584" id="ae"/><path fill="#008a0e" d="M839-1102c70 0 148 7 206 17v167c-112-18-268-36-363 15-129 69-208 203-208 395V0H294c-10-367 32-789-52-1082h171c21 75 41 161 48 250h5c67-152 152-270 373-270" id="af"/><path fill="#008a0e" d="M891-1484c-201 251-362 514-362 954 0 441 161 704 362 955H701C500 176 342-90 342-532c0-440 159-704 359-952h190" id="ag"/><path fill="#008a0e" d="M528-1484c201 248 357 511 357 952 0 442-156 709-357 957H336C537 174 700-89 700-530c0-440-163-703-364-954h192" id="ah"/><g id="g"><use transform="matrix(0.017361111111111105,0,0,0.017361111111111105,0,0)" xlink:href="#K"/><use transform="matrix(0.017361111111111105,0,0,0.017361111111111105,21.336805555555546,0)" xlink:href="#L"/><use transform="matrix(0.017361111111111105,0,0,0.017361111111111105,42.67361111111109,0)" xlink:href="#M"/><use transform="matrix(0.017361111111111105,0,0,0.017361111111111105,64.01041666666664,0)" xlink:href="#N"/><use transform="matrix(0.017361111111111105,0,0,0.017361111111111105,85.34722222222219,0)" xlink:href="#O"/><use transform="matrix(0.017361111111111105,0,0,0.017361111111111105,106.68402777777773,0)" xlink:href="#ab"/><use transform="matrix(0.017361111111111105,0,0,0.017361111111111105,128.0208333333333,0)" xlink:href="#ac"/><use transform="matrix(0.017361111111111105,0,0,0.017361111111111105,149.35763888888883,0)" xlink:href="#ad"/><use transform="matrix(0.017361111111111105,0,0,0.017361111111111105,170.69444444444437,0)" xlink:href="#ad"/><use transform="matrix(0.017361111111111105,0,0,0.017361111111111105,192.0312499999999,0)" xlink:href="#ae"/><use transform="matrix(0.017361111111111105,0,0,0.017361111111111105,213.36805555555546,0)" xlink:href="#af"/><use transform="matrix(0.017361111111111105,0,0,0.017361111111111105,234.704861111111,0)" xlink:href="#ag"/><use transform="matrix(0.017361111111111105,0,0,0.017361111111111105,256.0416666666666,0)" xlink:href="#ah"/></g><path fill="#008a0e" d="M745-142h380V0H143v-142h422v-798H246v-142h499v940zM545-1292v-192h200v192H545" id="ai"/><path fill="#008a0e" d="M706-1102c241 0 344 136 343 381V0H868v-695c1-168-57-273-220-268-190 6-283 138-283 336V0H185c-3-360 6-732-6-1082h170c4 54 7 126 8 185h3c63-121 164-204 346-205" id="aj"/><path fill="#008a0e" d="M682 16c-209 0-323-80-324-285v-671H190v-142h170l58-282h120v282h432v142H538v652c2 114 60 155 182 155 106 0 209-16 297-34v137C921-4 806 16 682 16" id="ak"/><path fill="#3a414a" d="M891-1484c-201 251-362 514-362 954 0 441 161 704 362 955H701C500 176 342-90 342-532c0-440 159-704 359-952h190" id="al"/><path fill="#3a414a" d="M528-1484c201 248 357 511 357 952 0 442-156 709-357 957H336C537 174 700-89 700-530c0-440-163-703-364-954h192" id="am"/><g id="h"><use transform="matrix(0.017361111111111105,0,0,0.017361111111111105,0,0)" xlink:href="#ad"/><use transform="matrix(0.017361111111111105,0,0,0.017361111111111105,21.336805555555546,0)" xlink:href="#af"/><use transform="matrix(0.017361111111111105,0,0,0.017361111111111105,42.67361111111109,0)" xlink:href="#ai"/><use transform="matrix(0.017361111111111105,0,0,0.017361111111111105,64.01041666666664,0)" xlink:href="#aj"/><use transform="matrix(0.017361111111111105,0,0,0.017361111111111105,85.34722222222219,0)" xlink:href="#ak"/><use transform="matrix(0.017361111111111105,0,0,0.017361111111111105,106.68402777777773,0)" xlink:href="#al"/><use transform="matrix(0.017361111111111105,0,0,0.017361111111111105,128.0208333333333,0)" xlink:href="#Y"/><use transform="matrix(0.017361111111111105,0,0,0.017361111111111105,149.35763888888883,0)" xlink:href="#Z"/><use transform="matrix(0.017361111111111105,0,0,0.017361111111111105,170.69444444444437,0)" xlink:href="#am"/></g><path fill="#fc9432" d="M6 0l50-261h32L37 0H6" id="an"/><path fill="#fc9432" d="M30-147c31-64 166-65 159 27C183-49 158 1 86 4 9 8 1-88 30-147zM88-20c53 0 68-48 68-100 0-31-11-51-44-50-52 1-68 46-68 97 0 32 13 53 44 53" id="ao"/><path fill="#fc9432" d="M67-162c32-53 139-36 121 50C175-51 163 2 97 4 68 4 52-11 42-31 38 6 28 39 22 75H-9l50-265h29c-1 10 0 20-3 28zm89 36c0-26-10-43-35-43-54 0-67 50-69 103-1 29 14 45 42 46 53 0 62-58 62-106" id="ap"/><g id="i"><use transform="matrix(0.0864197530864197,0,0,0.0864197530864197,0,0)" xlink:href="#an"/><use transform="matrix(0.0864197530864197,0,0,0.0864197530864197,6.827160493827157,0)" xlink:href="#ao"/><use transform="matrix(0.0864197530864197,0,0,0.0864197530864197,24.111111111111097,0)" xlink:href="#ao"/><use transform="matrix(0.0864197530864197,0,0,0.0864197530864197,41.39506172839504,0)" xlink:href="#ap"/></g><path fill="#fc9432" d="M89 0H52L20-190h33L74-25l89-165h34" id="aq"/><path fill="#fc9432" d="M165-48c-4 18 1 34 23 27l-3 20c-29 8-62 0-52-35h-2C116-14 99 4 63 4 30 4 8-16 8-49c0-68 71-67 138-67 10-26 0-56-31-54-26 1-42 9-47 31l-32-5c8-67 160-71 144 15-5 28-9 54-15 81zM42-50c3 52 80 24 89-6 7-12 7-24 11-38-47 1-103-4-100 44" id="ar"/><path fill="#fc9432" d="M66-151c12-25 30-51 66-40l-6 26C45-176 58-65 38 0H6l36-190h30" id="as"/><path fill="#fc9432" d="M50-231l6-30h32l-6 30H50zM6 0l37-190h31L37 0H6" id="at"/><path fill="#fc9432" d="M68-162c25-46 127-43 121 31C183-60 169 1 98 4 69 5 53-11 43-31L36 0H5l52-261h31zm88 36c2-27-9-43-34-43-55 0-70 51-70 103 0 29 15 45 43 46 52 0 58-58 61-106" id="au"/><path fill="#fc9432" d="M111-194c62-3 86 47 72 106H45c-7 38 6 69 45 68 27-1 43-14 53-32l24 11C152-15 129 4 87 4 38 3 12-23 12-71c0-70 32-119 99-123zm44 81c14-66-71-72-95-28-4 8-8 17-11 28h106" id="av"/><g id="j"><use transform="matrix(0.0864197530864197,0,0,0.0864197530864197,0,0)" xlink:href="#aq"/><use transform="matrix(0.0864197530864197,0,0,0.0864197530864197,15.555555555555546,0)" xlink:href="#ar"/><use transform="matrix(0.0864197530864197,0,0,0.0864197530864197,32.83950617283949,0)" xlink:href="#as"/><use transform="matrix(0.0864197530864197,0,0,0.0864197530864197,43.12345679012344,0)" xlink:href="#at"/><use transform="matrix(0.0864197530864197,0,0,0.0864197530864197,49.9506172839506,0)" xlink:href="#ar"/><use transform="matrix(0.0864197530864197,0,0,0.0864197530864197,67.23456790123454,0)" xlink:href="#au"/><use transform="matrix(0.0864197530864197,0,0,0.0864197530864197,84.51851851851848,0)" xlink:href="#an"/><use transform="matrix(0.0864197530864197,0,0,0.0864197530864197,91.34567901234563,0)" xlink:href="#av"/></g><path fill="#fc9432" d="M87 75C49 33 22-17 22-94c0-76 28-126 65-167h31c-38 41-64 92-64 168S80 34 118 75H87" id="aw"/><path fill="#fc9432" d="M100-194c63 0 86 42 84 106H49c0 40 14 67 53 68 26 1 43-12 49-29l28 8c-11 28-37 45-77 45C44 4 14-33 15-96c1-61 26-98 85-98zm52 81c6-60-76-77-97-28-3 7-6 17-6 28h103" id="ax"/><path fill="#fc9432" d="M141-36C126-15 110 5 73 4 37 3 15-17 15-53c-1-64 63-63 125-63 3-35-9-54-41-54-24 1-41 7-42 31l-33-3c5-37 33-52 76-52 45 0 72 20 72 64v82c-1 20 7 32 28 27v20c-31 9-61-2-59-35zM48-53c0 20 12 33 32 33 41-3 63-29 60-74-43 2-92-5-92 41" id="ay"/><path fill="#fc9432" d="M96-169c-40 0-48 33-48 73s9 75 48 75c24 0 41-14 43-38l32 2c-6 37-31 61-74 61-59 0-76-41-82-99-10-93 101-131 147-64 4 7 5 14 7 22l-32 3c-4-21-16-35-41-35" id="az"/><path fill="#fc9432" d="M106-169C34-169 62-67 57 0H25v-261h32l-1 103c12-21 28-36 61-36 89 0 53 116 60 194h-32v-121c2-32-8-49-39-48" id="aA"/><g id="k"><use transform="matrix(0.06790123456790118,0,0,0.06790123456790118,0,0)" xlink:href="#aw"/><use transform="matrix(0.06790123456790118,0,0,0.06790123456790118,8.08024691358024,0)" xlink:href="#ax"/><use transform="matrix(0.06790123456790118,0,0,0.06790123456790118,21.660493827160472,0)" xlink:href="#ay"/><use transform="matrix(0.06790123456790118,0,0,0.06790123456790118,35.240740740740705,0)" xlink:href="#az"/><use transform="matrix(0.06790123456790118,0,0,0.06790123456790118,47.46296296296292,0)" xlink:href="#aA"/></g><path fill="#fc9432" d="M24-231v-30h32v30H24zM24 0v-190h32V0H24" id="aB"/><path fill="#fc9432" d="M59-47c-2 24 18 29 38 22v24C64 9 27 4 27-40v-127H5v-23h24l9-43h21v43h35v23H59v120" id="aC"/><path fill="#fc9432" d="M210-169c-67 3-38 105-44 169h-31v-121c0-29-5-50-35-48C34-165 62-65 56 0H25l-1-190h30c1 10-1 24 2 32 10-44 99-50 107 0 11-21 27-35 58-36 85-2 47 119 55 194h-31v-121c0-29-5-49-35-48" id="aD"/><g id="l"><use transform="matrix(0.06790123456790118,0,0,0.06790123456790118,0,0)" xlink:href="#aB"/><use transform="matrix(0.06790123456790118,0,0,0.06790123456790118,5.3641975308641925,0)" xlink:href="#aC"/><use transform="matrix(0.06790123456790118,0,0,0.06790123456790118,12.154320987654309,0)" xlink:href="#ax"/><use transform="matrix(0.06790123456790118,0,0,0.06790123456790118,25.73456790123454,0)" xlink:href="#aD"/></g><path fill="#fc9432" d="M117-194c89-4 53 116 60 194h-32v-121c0-31-8-49-39-48C34-167 62-67 57 0H25l-1-190h30c1 10-1 24 2 32 11-22 29-35 61-36" id="aE"/><g id="m"><use transform="matrix(0.06790123456790118,0,0,0.06790123456790118,0,0)" xlink:href="#aB"/><use transform="matrix(0.06790123456790118,0,0,0.06790123456790118,5.3641975308641925,0)" xlink:href="#aE"/></g><path fill="#fc9432" d="M33-261c38 41 65 92 65 168S71 34 33 75H2C39 34 66-17 66-93S39-220 2-261h31" id="aF"/><g id="n"><use transform="matrix(0.010850694444444435,0,0,0.010850694444444435,0,0)" xlink:href="#R"/><use transform="matrix(0.010850694444444435,0,0,0.010850694444444435,13.33550347222221,0)" xlink:href="#S"/><use transform="matrix(0.010850694444444435,0,0,0.010850694444444435,26.67100694444442,0)" xlink:href="#T"/><use transform="matrix(0.010850694444444435,0,0,0.010850694444444435,40.00651041666663,0)" xlink:href="#U"/><use transform="matrix(0.010850694444444435,0,0,0.010850694444444435,53.34201388888884,0)" xlink:href="#V"/><use transform="matrix(0.010850694444444435,0,0,0.010850694444444435,66.67751736111106,0)" xlink:href="#W"/><use transform="matrix(0.06790123456790118,0,0,0.06790123456790118,80.01302083333327,0)" xlink:href="#aF"/></g><path fill="#1071e5" d="M50-231l6-30h32l-6 30H50zM6 0l37-190h31L37 0H6" id="aG"/><path fill="#1071e5" d="M51-54c-9 22 5 41 31 30L79-1C43 14 10-4 19-52l22-115H19l5-23h22l19-43h21l-9 43h35l-4 23H73" id="aH"/><path fill="#1071e5" d="M111-194c62-3 86 47 72 106H45c-7 38 6 69 45 68 27-1 43-14 53-32l24 11C152-15 129 4 87 4 38 3 12-23 12-71c0-70 32-119 99-123zm44 81c14-66-71-72-95-28-4 8-8 17-11 28h106" id="aI"/><path fill="#1071e5" d="M66-151c12-25 30-51 66-40l-6 26C45-176 58-65 38 0H6l36-190h30" id="aJ"/><path fill="#1071e5" d="M165-48c-4 18 1 34 23 27l-3 20c-29 8-62 0-52-35h-2C116-14 99 4 63 4 30 4 8-16 8-49c0-68 71-67 138-67 10-26 0-56-31-54-26 1-42 9-47 31l-32-5c8-67 160-71 144 15-5 28-9 54-15 81zM42-50c3 52 80 24 89-6 7-12 7-24 11-38-47 1-103-4-100 44" id="aK"/><path fill="#1071e5" d="M68-162c25-46 127-43 121 31C183-60 169 1 98 4 69 5 53-11 43-31L36 0H5l52-261h31zm88 36c2-27-9-43-34-43-55 0-70 51-70 103 0 29 15 45 43 46 52 0 58-58 61-106" id="aL"/><path fill="#1071e5" d="M6 0l50-261h32L37 0H6" id="aM"/><g id="o"><use transform="matrix(0.08024691358024688,0,0,0.08024691358024688,0,0)" xlink:href="#aG"/><use transform="matrix(0.08024691358024688,0,0,0.08024691358024688,6.339506172839504,0)" xlink:href="#aH"/><use transform="matrix(0.08024691358024688,0,0,0.08024691358024688,14.364197530864192,0)" xlink:href="#aI"/><use transform="matrix(0.08024691358024688,0,0,0.08024691358024688,30.41358024691357,0)" xlink:href="#aJ"/><use transform="matrix(0.08024691358024688,0,0,0.08024691358024688,39.96296296296295,0)" xlink:href="#aK"/><use transform="matrix(0.08024691358024688,0,0,0.08024691358024688,56.01234567901232,0)" xlink:href="#aL"/><use transform="matrix(0.08024691358024688,0,0,0.08024691358024688,72.0617283950617,0)" xlink:href="#aM"/><use transform="matrix(0.08024691358024688,0,0,0.08024691358024688,78.40123456790121,0)" xlink:href="#aI"/></g><path fill="#4c535d" d="M67-158c15-20 31-36 64-36 94 0 33 127 27 194h-32l25-140c3-38-53-32-70-12C52-117 51-51 37 0H6l51-261h31" id="aN"/><path fill="#4c535d" d="M111-194c62-3 86 47 72 106H45c-7 38 6 69 45 68 27-1 43-14 53-32l24 11C152-15 129 4 87 4 38 3 12-23 12-71c0-70 32-119 99-123zm44 81c14-66-71-72-95-28-4 8-8 17-11 28h106" id="aO"/><path fill="#4c535d" d="M66-151c12-25 30-51 66-40l-6 26C45-176 58-65 38 0H6l36-190h30" id="aP"/><path fill="#4c535d" d="M58-38C53-5 46 26 28 46H7C19 32 27 18 32 0H17l7-38h34" id="aQ"/><g id="p"><use transform="matrix(0.061728395061728336,0,0,0.061728395061728336,0,0)" xlink:href="#aN"/><use transform="matrix(0.061728395061728336,0,0,0.061728395061728336,12.345679012345666,0)" xlink:href="#aO"/><use transform="matrix(0.061728395061728336,0,0,0.061728395061728336,24.691358024691333,0)" xlink:href="#aP"/><use transform="matrix(0.061728395061728336,0,0,0.061728395061728336,32.037037037037,0)" xlink:href="#aO"/><use transform="matrix(0.061728395061728336,0,0,0.061728395061728336,44.382716049382665,0)" xlink:href="#aQ"/></g><path fill="#4c535d" d="M165-48c-4 18 1 34 23 27l-3 20c-29 8-62 0-52-35h-2C116-14 99 4 63 4 30 4 8-16 8-49c0-68 71-67 138-67 10-26 0-56-31-54-26 1-42 9-47 31l-32-5c8-67 160-71 144 15-5 28-9 54-15 81zM42-50c3 52 80 24 89-6 7-12 7-24 11-38-47 1-103-4-100 44" id="aR"/><use transform="matrix(0.061728395061728336,0,0,0.061728395061728336,0,0)" xlink:href="#aR" id="q"/><path fill="#4c535d" d="M6 0l50-261h32L37 0H6" id="aS"/><path fill="#4c535d" d="M50-231l6-30h32l-6 30H50zM6 0l37-190h31L37 0H6" id="aT"/><path fill="#4c535d" d="M55-144c13 50 104 24 104 88C159 21 15 23 1-39l26-10c6 40 102 42 102-4-13-50-104-23-104-87 0-71 143-71 148-8l-29 4c-5-35-85-37-89 0" id="aU"/><path fill="#4c535d" d="M51-54c-9 22 5 41 31 30L79-1C43 14 10-4 19-52l22-115H19l5-23h22l19-43h21l-9 43h35l-4 23H73" id="aV"/><g id="r"><use transform="matrix(0.061728395061728336,0,0,0.061728395061728336,0,0)" xlink:href="#aS"/><use transform="matrix(0.061728395061728336,0,0,0.061728395061728336,4.876543209876538,0)" xlink:href="#aT"/><use transform="matrix(0.061728395061728336,0,0,0.061728395061728336,9.753086419753076,0)" xlink:href="#aU"/><use transform="matrix(0.061728395061728336,0,0,0.061728395061728336,20.864197530864175,0)" xlink:href="#aV"/></g><path fill="#4c535d" d="M100-194c63 0 86 42 84 106H49c0 40 14 67 53 68 26 1 43-12 49-29l28 8c-11 28-37 45-77 45C44 4 14-33 15-96c1-61 26-98 85-98zm52 81c6-60-76-77-97-28-3 7-6 17-6 28h103" id="aW"/><path fill="#4c535d" d="M141-36C126-15 110 5 73 4 37 3 15-17 15-53c-1-64 63-63 125-63 3-35-9-54-41-54-24 1-41 7-42 31l-33-3c5-37 33-52 76-52 45 0 72 20 72 64v82c-1 20 7 32 28 27v20c-31 9-61-2-59-35zM48-53c0 20 12 33 32 33 41-3 63-29 60-74-43 2-92-5-92 41" id="aX"/><path fill="#4c535d" d="M96-169c-40 0-48 33-48 73s9 75 48 75c24 0 41-14 43-38l32 2c-6 37-31 61-74 61-59 0-76-41-82-99-10-93 101-131 147-64 4 7 5 14 7 22l-32 3c-4-21-16-35-41-35" id="aY"/><path fill="#4c535d" d="M106-169C34-169 62-67 57 0H25v-261h32l-1 103c12-21 28-36 61-36 89 0 53 116 60 194h-32v-121c2-32-8-49-39-48" id="aZ"/><g id="s"><use transform="matrix(0.06172839506172839,0,0,0.06172839506172839,0,0)" xlink:href="#aW"/><use transform="matrix(0.06172839506172839,0,0,0.06172839506172839,12.345679012345679,0)" xlink:href="#aX"/><use transform="matrix(0.06172839506172839,0,0,0.06172839506172839,24.691358024691358,0)" xlink:href="#aY"/><use transform="matrix(0.06172839506172839,0,0,0.06172839506172839,35.80246913580247,0)" xlink:href="#aZ"/></g><path fill="#4c535d" d="M24 0v-261h32V0H24" id="ba"/><path fill="#4c535d" d="M24-231v-30h32v30H24zM24 0v-190h32V0H24" id="bb"/><path fill="#4c535d" d="M117-194c89-4 53 116 60 194h-32v-121c0-31-8-49-39-48C34-167 62-67 57 0H25l-1-190h30c1 10-1 24 2 32 11-22 29-35 61-36" id="bc"/><g id="t"><use transform="matrix(0.06172839506172839,0,0,0.06172839506172839,0,0)" xlink:href="#ba"/><use transform="matrix(0.06172839506172839,0,0,0.06172839506172839,4.876543209876543,0)" xlink:href="#bb"/><use transform="matrix(0.06172839506172839,0,0,0.06172839506172839,9.753086419753085,0)" xlink:href="#bc"/><use transform="matrix(0.06172839506172839,0,0,0.06172839506172839,22.098765432098766,0)" xlink:href="#aW"/></g><path fill="#4c535d" d="M177-190C167-65 218 103 67 71c-23-6-38-20-44-43l32-5c15 47 100 32 89-28v-30C133-14 115 1 83 1 29 1 15-40 15-95c0-56 16-97 71-98 29-1 48 16 59 35 1-10 0-23 2-32h30zM94-22c36 0 50-32 50-73 0-42-14-75-50-75-39 0-46 34-46 75s6 73 46 73" id="bd"/><path fill="#4c535d" d="M59-47c-2 24 18 29 38 22v24C64 9 27 4 27-40v-127H5v-23h24l9-43h21v43h35v23H59v120" id="be"/><path fill="#4c535d" d="M135-143c-3-34-86-38-87 0 15 53 115 12 119 90S17 21 10-45l28-5c4 36 97 45 98 0-10-56-113-15-118-90-4-57 82-63 122-42 12 7 21 19 24 35" id="bf"/><g id="u"><use transform="matrix(0.06172839506172839,0,0,0.06172839506172839,0,0)" xlink:href="#bd"/><use transform="matrix(0.06172839506172839,0,0,0.06172839506172839,12.345679012345679,0)" xlink:href="#aW"/><use transform="matrix(0.06172839506172839,0,0,0.06172839506172839,24.691358024691358,0)" xlink:href="#be"/><use transform="matrix(0.06172839506172839,0,0,0.06172839506172839,30.864197530864196,0)" xlink:href="#bf"/></g><path fill="#4c535d" d="M114-163C36-179 61-72 57 0H25l-1-190h30c1 12-1 29 2 39 6-27 23-49 58-41v29" id="bg"/><path fill="#4c535d" d="M84 4C-5 8 30-112 23-190h32v120c0 31 7 50 39 49 72-2 45-101 50-169h31l1 190h-30c-1-10 1-25-2-33-11 22-28 36-60 37" id="bh"/><g id="v"><use transform="matrix(0.06172839506172839,0,0,0.06172839506172839,0,0)" xlink:href="#bg"/><use transform="matrix(0.06172839506172839,0,0,0.06172839506172839,7.345679012345679,0)" xlink:href="#bh"/><use transform="matrix(0.06172839506172839,0,0,0.06172839506172839,19.691358024691358,0)" xlink:href="#bc"/></g><path fill="#4c535d" d="M101-234c-31-9-42 10-38 44h38v23H63V0H32v-167H5v-23h27c-7-52 17-82 69-68v24" id="bi"/><path fill="#4c535d" d="M100-194c62-1 85 37 85 99 1 63-27 99-86 99S16-35 15-95c0-66 28-99 85-99zM99-20c44 1 53-31 53-75 0-43-8-75-51-75s-53 32-53 75 10 74 51 75" id="bj"/><g id="w"><use transform="matrix(0.06172839506172839,0,0,0.06172839506172839,0,0)" xlink:href="#bi"/><use transform="matrix(0.06172839506172839,0,0,0.06172839506172839,6.172839506172839,0)" xlink:href="#bj"/><use transform="matrix(0.06172839506172839,0,0,0.06172839506172839,18.51851851851852,0)" xlink:href="#bg"/></g><path fill="#4c535d" d="M185-48c-13 30-37 53-82 52C43 2 14-33 14-96s30-98 90-98c62 0 83 45 84 108H66c0 31 8 55 39 56 18 0 30-7 34-22zm-45-69c5-46-57-63-70-21-2 6-4 13-4 21h74" id="bk"/><path fill="#4c535d" d="M133-34C117-15 103 5 69 4 32 3 11-16 11-54c-1-60 55-63 116-61 1-26-3-47-28-47-18 1-26 9-28 27l-52-2c7-38 36-58 82-57s74 22 75 68l1 82c-1 14 12 18 25 15v27c-30 8-71 5-69-32zm-48 3c29 0 43-24 42-57-32 0-66-3-65 30 0 17 8 27 23 27" id="bl"/><path fill="#4c535d" d="M190-63c-7 42-38 67-86 67-59 0-84-38-90-98-12-110 154-137 174-36l-49 2c-2-19-15-32-35-32-30 0-35 28-38 64-6 74 65 87 74 30" id="bm"/><path fill="#4c535d" d="M114-157C55-157 80-60 75 0H25v-261h50l-1 109c12-26 28-41 61-42 86-1 58 113 63 194h-50c-7-57 23-157-34-157" id="bn"/><g id="x"><use transform="matrix(0.06172839506172839,0,0,0.06172839506172839,0,0)" xlink:href="#bk"/><use transform="matrix(0.06172839506172839,0,0,0.06172839506172839,12.345679012345679,0)" xlink:href="#bl"/><use transform="matrix(0.06172839506172839,0,0,0.06172839506172839,24.691358024691358,0)" xlink:href="#bm"/><use transform="matrix(0.06172839506172839,0,0,0.06172839506172839,37.03703703703704,0)" xlink:href="#bn"/></g><g id="y"><use transform="matrix(0.06172839506172839,0,0,0.06172839506172839,0,0)" xlink:href="#bb"/><use transform="matrix(0.06172839506172839,0,0,0.06172839506172839,4.876543209876543,0)" xlink:href="#be"/><use transform="matrix(0.06172839506172839,0,0,0.06172839506172839,11.049382716049383,0)" xlink:href="#aW"/><use transform="matrix(0.06172839506172839,0,0,0.06172839506172839,23.395061728395063,0)" xlink:href="#bg"/><use transform="matrix(0.06172839506172839,0,0,0.06172839506172839,30.74074074074074,0)" xlink:href="#aX"/><use transform="matrix(0.06172839506172839,0,0,0.06172839506172839,43.08641975308642,0)" xlink:href="#be"/><use transform="matrix(0.06172839506172839,0,0,0.06172839506172839,49.25925925925926,0)" xlink:href="#bb"/><use transform="matrix(0.06172839506172839,0,0,0.06172839506172839,54.135802469135804,0)" xlink:href="#bj"/><use transform="matrix(0.06172839506172839,0,0,0.06172839506172839,66.48148148148148,0)" xlink:href="#bc"/></g><g id="z"><use transform="matrix(0.06172839506172839,0,0,0.06172839506172839,0,0)" xlink:href="#bc"/><use transform="matrix(0.06172839506172839,0,0,0.06172839506172839,12.345679012345679,0)" xlink:href="#bj"/><use transform="matrix(0.06172839506172839,0,0,0.06172839506172839,24.691358024691358,0)" xlink:href="#be"/><use transform="matrix(0.06172839506172839,0,0,0.06172839506172839,30.864197530864196,0)" xlink:href="#aW"/></g><g id="A"><use transform="matrix(0.06172839506172839,0,0,0.06172839506172839,0,0)" xlink:href="#be"/><use transform="matrix(0.06172839506172839,0,0,0.06172839506172839,6.172839506172839,0)" xlink:href="#aZ"/><use transform="matrix(0.06172839506172839,0,0,0.06172839506172839,18.51851851851852,0)" xlink:href="#aW"/></g><path fill="#4c535d" d="M63-70H37l-4-178h34zM33 0v-35h34V0H33" id="bo"/><g id="B"><use transform="matrix(0.06172839506172839,0,0,0.06172839506172839,0,0)" xlink:href="#aY"/><use transform="matrix(0.06172839506172839,0,0,0.06172839506172839,11.11111111111111,0)" xlink:href="#bj"/><use transform="matrix(0.06172839506172839,0,0,0.06172839506172839,23.45679012345679,0)" xlink:href="#ba"/><use transform="matrix(0.06172839506172839,0,0,0.06172839506172839,28.333333333333336,0)" xlink:href="#bj"/><use transform="matrix(0.06172839506172839,0,0,0.06172839506172839,40.67901234567901,0)" xlink:href="#bc"/><use transform="matrix(0.06172839506172839,0,0,0.06172839506172839,53.02469135802469,0)" xlink:href="#bo"/></g><path fill="#4c535d" d="M30-147c31-64 166-65 159 27C183-49 158 1 86 4 9 8 1-88 30-147zM88-20c53 0 68-48 68-100 0-31-11-51-44-50-52 1-68 46-68 97 0 32 13 53 44 53" id="bp"/><path fill="#4c535d" d="M67-162c32-53 139-36 121 50C175-51 163 2 97 4 68 4 52-11 42-31 38 6 28 39 22 75H-9l50-265h29c-1 10 0 20-3 28zm89 36c0-26-10-43-35-43-54 0-67 50-69 103-1 29 14 45 42 46 53 0 62-58 62-106" id="bq"/><g id="C"><use transform="matrix(0.06790123456790123,0,0,0.06790123456790123,0,0)" xlink:href="#aS"/><use transform="matrix(0.06790123456790123,0,0,0.06790123456790123,5.364197530864197,0)" xlink:href="#bp"/><use transform="matrix(0.06790123456790123,0,0,0.06790123456790123,18.944444444444443,0)" xlink:href="#bp"/><use transform="matrix(0.06790123456790123,0,0,0.06790123456790123,32.52469135802469,0)" xlink:href="#bq"/></g><path fill="#4c535d" d="M68-162c25-46 127-43 121 31C183-60 169 1 98 4 69 5 53-11 43-31L36 0H5l52-261h31zm88 36c2-27-9-43-34-43-55 0-70 51-70 103 0 29 15 45 43 46 52 0 58-58 61-106" id="br"/><path fill="#4c535d" d="M133-28C103 26-5 8 13-77c13-62 24-115 90-117 29-1 46 15 56 35l19-102h32L160 0h-30zM45-64c-2 27 10 43 35 43 54-1 69-50 69-103 0-29-15-46-42-46-53-1-58 58-62 106" id="bs"/><path fill="#4c535d" d="M198-190L69 30C53 58 25 83-20 72c4-11-1-27 19-22 33-1 43-29 59-52L20-190h32L79-34l84-156h35" id="bt"/><g id="D"><use transform="matrix(0.06790123456790123,0,0,0.06790123456790123,0,0)" xlink:href="#br"/><use transform="matrix(0.06790123456790123,0,0,0.06790123456790123,13.580246913580247,0)" xlink:href="#bp"/><use transform="matrix(0.06790123456790123,0,0,0.06790123456790123,27.160493827160494,0)" xlink:href="#bs"/><use transform="matrix(0.06790123456790123,0,0,0.06790123456790123,40.74074074074074,0)" xlink:href="#bt"/></g><path fill="#4c535d" d="M248-111c6-24 9-61-24-58-72 9-57 108-77 169h-31l26-142c3-37-50-30-64-10C52-115 50-51 37 0H6l36-190h30c-1 10-6 24-4 32 13-43 101-52 105 5 13-22 29-41 61-41 90 0 28 129 23 194h-31" id="bu"/><path fill="#4c535d" d="M67 3c-93-2-31-127-26-193h32L48-50c-3 39 53 32 70 12 30-34 30-101 43-152h32L157 0h-30c1-10 6-24 4-33-14 20-29 37-64 36" id="bv"/><g id="E"><use transform="matrix(0.06790123456790123,0,0,0.06790123456790123,0,0)" xlink:href="#bu"/><use transform="matrix(0.06790123456790123,0,0,0.06790123456790123,20.30246913580247,0)" xlink:href="#bv"/><use transform="matrix(0.06790123456790123,0,0,0.06790123456790123,33.882716049382715,0)" xlink:href="#aU"/><use transform="matrix(0.06790123456790123,0,0,0.06790123456790123,46.10493827160494,0)" xlink:href="#aV"/></g><g id="F"><use transform="matrix(0.06790123456790123,0,0,0.06790123456790123,0,0)" xlink:href="#br"/><use transform="matrix(0.06790123456790123,0,0,0.06790123456790123,13.580246913580247,0)" xlink:href="#aO"/></g><path fill="#4c535d" d="M67-158c22-48 132-52 116 29L158 0h-32l25-140c3-38-53-32-70-12C52-117 51-52 38 0H6l36-190h30" id="bw"/><g id="G"><use transform="matrix(0.06790123456790123,0,0,0.06790123456790123,0,0)" xlink:href="#aT"/><use transform="matrix(0.06790123456790123,0,0,0.06790123456790123,5.364197530864197,0)" xlink:href="#bw"/><use transform="matrix(0.06790123456790123,0,0,0.06790123456790123,18.944444444444443,0)" xlink:href="#bs"/><use transform="matrix(0.06790123456790123,0,0,0.06790123456790123,32.52469135802469,0)" xlink:href="#aO"/><use transform="matrix(0.06790123456790123,0,0,0.06790123456790123,46.10493827160494,0)" xlink:href="#bw"/><use transform="matrix(0.06790123456790123,0,0,0.06790123456790123,59.68518518518518,0)" xlink:href="#aV"/><use transform="matrix(0.06790123456790123,0,0,0.06790123456790123,66.4753086419753,0)" xlink:href="#aO"/><use transform="matrix(0.06790123456790123,0,0,0.06790123456790123,80.05555555555553,0)" xlink:href="#bs"/></g></defs></g></svg>